<?xml version="1.0" standalone="no"?>
<!DOCTYPE svg PUBLIC "-//W3C//DTD SVG 20010904//EN"
 "http://www.w3.org/TR/2001/REC-SVG-20010904/DTD/svg10.dtd">
<svg version="1.0" xmlns="http://www.w3.org/2000/svg"
 width="1280.000000pt" height="791.000000pt" viewBox="0 0 1280.000000 791.000000"
 preserveAspectRatio="xMidYMid meet">
<metadata>
Created by potrace 1.15, written by Peter Selinger 2001-2017
</metadata>
<g transform="translate(0.000000,791.000000) scale(0.100000,-0.100000)"
fill="#000000" stroke="none">
<path d="M6881 7884 c-83 -22 -150 -62 -222 -134 -105 -104 -113 -127 -218
-635 -49 -242 -155 -757 -235 -1145 -80 -388 -210 -1022 -290 -1410 -80 -388
-179 -869 -220 -1070 -69 -336 -190 -924 -476 -2315 -60 -291 -114 -560 -120
-597 -25 -160 46 -347 172 -450 227 -186 554 -150 729 82 77 101 57 23 279
1103 60 295 160 778 220 1072 61 294 160 776 220 1070 61 294 160 776 220
1070 61 294 160 776 220 1070 148 717 327 1593 345 1682 39 189 -6 345 -134
474 -71 72 -138 111 -228 134 -71 19 -191 18 -262 -1z"/>
<path d="M3050 7100 c-64 -11 -139 -42 -191 -77 -24 -17 -657 -642 -1405
-1389 -1482 -1479 -1403 -1394 -1439 -1545 -19 -82 -19 -159 0 -234 38 -146
-41 -61 1429 -1534 894 -896 1381 -1377 1421 -1402 92 -61 176 -83 298 -76
118 6 184 29 276 95 161 118 240 345 185 533 -42 142 6 90 -1241 1339 l-1163
1165 1155 1155 c636 635 1169 1175 1185 1199 67 100 97 260 71 380 -56 261
-317 436 -581 391z"/>
<path d="M9554 7096 c-189 -43 -345 -200 -385 -387 -26 -120 4 -280 71 -380
16 -24 549 -564 1185 -1199 l1155 -1155 -1163 -1165 c-1247 -1249 -1199 -1197
-1241 -1339 -55 -188 24 -415 185 -533 92 -66 158 -89 276 -95 122 -7 206 15
298 76 40 25 527 506 1421 1402 1470 1473 1391 1388 1429 1534 19 75 19 152 0
234 -36 151 43 66 -1439 1545 -748 747 -1383 1374 -1411 1392 -104 69 -259 98
-381 70z"/>
</g>
</svg>
