<svg enable-background="new 0 0 1000 1000" viewBox="0 0 1000 1000" xmlns="http://www.w3.org/2000/svg"><g transform="matrix(.1 0 0 -.1 0 512)"><path d="m569.3 5008.5c-90-23-254.8-118.8-306.5-180.1-26.8-32.6-70.9-101.5-99.6-155.2l-51.7-97.7-5.7-1517.1-5.8-1519h595.7 593.8v877.3c0 1005.7 0 1001.8 153.2 1153.2 153.2 155.2 141.8 153.2 1210.6 153.2h934.8v651.3 651.3l-1478.8-1.9c-814-1.9-1507.4-7.6-1540-15.3z"/><path d="m4105.4 4349.6c0-768.1-5.7-812.2-134.1-957.8-42.1-47.9-118.8-107.3-168.6-132.2l-90-44.1-952-5.7-953.9-5.8v-858.2c0-1003.8 0-999.9-160.9-1162.7-157.1-155.2-187.7-160.9-925.2-160.9h-618.8v-900.3-900.3h2080.3c1549.7 0 2101.4 5.7 2160.8 23 63.2 17.2 151.3 93.8 459.7 396.5 241.4 237.5 392.7 404.2 415.7 452.1 28.7 63.2 36.4 124.5 36.4 364 0 373.5 21.1 500 114.9 689.6 69 143.7 105.4 185.8 568.9 643.6 683.8 678.1 613 649.4 1609.1 649.4h676.2v1293 1293h-900.3-900.3v-561.3c0-620.6-9.6-691.5-118.8-902.2-51.7-97.7-222.2-279.7-1005.7-1067l-946.3-948.2 40.2-88.1c220.3-501.9 28.7-1086.1-440.6-1335.1-419.4-224.2-883-155.2-1218.2 178.1-319.9 321.8-396.5 764.3-201.1 1168.5 164.7 341 482.7 553.6 863.9 580.4 162.8 11.5 302.7-11.5 469.3-80.5l114.9-47.9 927.1 925.2c618.7 618.7 936.7 948.2 961.6 999.9 32.6 69 36.4 128.3 36.4 628.3v549.8h-900.3-900.3z"/><path d="m8741.1 3671.4c0-1321.7-1.9-1358.1-40.2-1442.4-47.9-105.4-136-201.1-237.5-254.8-74.7-40.2-103.4-42.1-842.9-51.7-697.3-9.6-771.9-13.4-833.3-44.1-93.9-49.8-911.8-867.8-963.5-961.6-36.4-69-42.2-116.9-51.7-469.3-17.2-582.3-23-593.8-607.2-1170.4-356.3-352.5-436.7-423.3-542.1-473.1-69-32.6-164.7-69-210.7-78.6-55.6-13.4-817.9-21.1-2197.2-21.1h-2112.9v-900.3-900.3h1072.7c1262.4 0 1124.4-26.8 1436.7 277.8 113 111.1 243.3 216.4 296.9 243.3 210.7 107.3 245.2 111.1 1019.1 111.1h716.4l28.7 72.8c147.5 383.1 455.9 641.7 833.3 695.3 515.3 74.7 1030.6-275.8 1149.3-779.6 32.6-141.8 26.8-383.1-9.6-515.3-214.5-739.4-1114.8-999.9-1683.8-488.5-111.1 99.6-229.9 273.9-277.8 406.1l-32.6 91.9h-695.2c-580.4 0-706.9-5.7-764.3-28.7-38.3-17.2-160.9-118.8-272-226-220.3-212.6-312.2-275.8-496.1-337.1-113-38.3-153.2-40.2-1220.2-40.2h-1101.5v-335.2c0-295 5.7-346.7 42.1-444.4 55.6-147.5 199.2-291.2 346.7-346.7l111.1-42.1h3810 3812v871.6c0 739.4-3.8 883.1-28.7 942.5-17.2 40.2-143.7 187.7-293.1 339.1-423.4 434.8-444.4 494.2-444.4 1239.4v511.2l-93.9 32.6c-53.6 17.2-145.6 63.2-206.9 103.4-295 191.6-465.5 505.7-465.5 858.2 0 91.9 11.5 212.6 26.8 264.3 88.1 333.3 346.7 607.2 678.1 722.2 180.1 61.3 459.7 61.3 639.8 0 429.1-147.5 704.9-532.5 704.9-980.8 0-182-32.5-314.2-114.9-478.9-105.4-208.8-342.9-417.6-555.5-488.5l-95.8-32.6v-496.1c0-402.3 5.8-511.5 28.7-567 17.2-40.2 143.7-185.8 295-341 231.8-237.5 273.9-291.2 348.6-440.6l84.3-168.6 5.8-948.2 5.7-946.3 358.2 7.7 358.2 5.7 120.7 65.1c134.1 72.8 191.6 132.1 268.2 277.8l51.7 97.7v4453.8 4453.7l-69 124.5c-78.5 143.7-201.1 247.1-346.7 295-72.8 23-174.3 30.6-419.5 30.6h-323.7v-1354.3z"/><path d="m3228.1 1480c-134.1-67-220.3-168.6-262.4-312.2-36.4-120.7-36.4-172.4 1.9-298.8 44.1-145.6 191.6-293.1 342.9-335.2 507.6-147.5 881.2 480.8 509.5 852.4-162.8 162.8-385 199.2-591.9 93.8z"/><path d="m7542 608.5c-360.1-128.3-452.1-626.4-159-875.4 84.3-74.7 228-128.3 333.3-128.3 367.8 0 618.7 402.3 461.6 739.4-107.3 231.7-392.7 350.5-635.9 264.3z"/><path d="m5509.6-2222.7c-237.5-76.6-369.7-258.6-369.7-507.6 1.9-180.1 97.7-339 266.3-438.7 76.6-44 109.2-51.7 241.4-51.7 120.7 0 170.5 9.6 231.8 42.1 93.9 49.8 210.7 176.2 252.9 272 67 159 17.2 413.8-107.3 544-120.9 128.4-354.5 191.6-515.4 139.9z"/></g></svg>