<?xml version="1.0" standalone="no"?>
<!DOCTYPE svg PUBLIC "-//W3C//DTD SVG 20010904//EN"
 "http://www.w3.org/TR/2001/REC-SVG-20010904/DTD/svg10.dtd">
<svg version="1.0" xmlns="http://www.w3.org/2000/svg"
 width="1009.000000pt" height="1280.000000pt" viewBox="0 0 1009.000000 1280.000000"
 preserveAspectRatio="xMidYMid meet">
<metadata>
Created by potrace 1.15, written by Peter Selinger 2001-2017
</metadata>
<g transform="translate(0.000000,1280.000000) scale(0.100000,-0.100000)"
fill="#000000" stroke="none">
<path d="M3455 12790 c-417 -66 -777 -323 -990 -709 -122 -220 -175 -434 -176
-706 -1 -242 34 -394 141 -610 72 -144 135 -232 248 -343 218 -213 491 -329
797 -337 l119 -3 393 -763 c308 -597 390 -766 381 -774 -7 -7 -60 -50 -118
-97 -229 -186 -426 -431 -570 -711 -50 -97 -57 -105 -80 -101 -14 3 -207 27
-430 54 -223 28 -575 71 -782 97 l-376 46 -7 35 c-12 66 -64 203 -104 278
-156 288 -423 474 -741 514 -298 38 -627 -88 -848 -325 -411 -439 -413 -1138
-5 -1550 124 -125 274 -211 448 -256 124 -32 331 -33 452 -1 262 68 491 234
635 460 22 35 46 61 52 59 6 -2 115 -35 241 -71 127 -37 304 -89 395 -116 179
-53 754 -220 835 -243 l50 -14 7 -69 c21 -198 32 -269 58 -379 52 -219 135
-426 240 -600 36 -59 49 -90 42 -98 -5 -7 -181 -232 -392 -502 -210 -269 -388
-496 -395 -503 -9 -10 -18 -10 -41 -2 -16 6 -74 23 -129 37 -87 23 -121 27
-260 27 -120 1 -181 -4 -245 -17 -525 -113 -919 -524 -1042 -1084 -30 -141
-30 -396 1 -541 57 -271 173 -485 360 -665 134 -130 276 -215 446 -270 134
-43 191 -51 360 -51 171 0 255 14 407 69 218 79 444 245 596 440 147 189 252
449 283 698 14 113 6 336 -15 436 -22 102 -69 237 -110 319 l-35 69 430 470
429 471 112 -57 c283 -141 613 -211 925 -197 115 5 315 30 333 41 4 2 28 -73
55 -168 26 -95 69 -249 96 -344 27 -94 49 -179 49 -188 0 -8 -22 -43 -49 -78
-198 -253 -371 -608 -456 -935 -176 -676 -65 -1397 303 -1957 335 -512 827
-837 1430 -947 160 -29 495 -31 657 -5 106 18 284 58 335 77 14 5 66 23 115
40 102 36 311 138 412 202 258 160 521 406 700 653 354 489 535 1131 483 1715
-21 230 -81 495 -157 690 -48 124 -142 306 -221 425 -365 558 -927 899 -1592
966 -168 17 -473 -1 -613 -36 -22 -6 -41 17 -220 268 -109 150 -197 276 -197
279 0 3 30 41 66 84 524 630 675 1537 382 2283 -28 72 -28 75 -11 92 10 10
239 211 508 448 l490 429 30 -20 c50 -33 206 -105 275 -127 420 -135 854 -30
1142 277 140 149 225 314 279 542 18 75 18 345 0 435 -60 305 -239 589 -486
774 -81 60 -236 139 -345 175 -452 149 -953 -7 -1222 -381 -122 -169 -186
-341 -207 -559 -15 -145 7 -349 48 -458 9 -22 -18 -45 -511 -422 -287 -220
-527 -400 -533 -402 -7 -2 -37 17 -68 42 -201 165 -488 306 -746 367 -280 67
-618 67 -896 0 -44 -11 -82 -17 -85 -14 -3 2 -136 368 -297 811 l-292 807 38
40 c154 161 296 441 345 678 43 208 43 397 -1 597 -109 501 -468 872 -947 976
-85 19 -327 27 -411 14z"/>
</g>
</svg>
