<svg enable-background="new 0 0 1000 1000" viewBox="0 0 1000 1000" xmlns="http://www.w3.org/2000/svg"><g transform="matrix(.1 0 0 -.1 0 512)"><path d="m1325 120v-4900h3675 3675v4900 4900h-3675-3675zm7139.5-9.6v-4679.9h-3464.5-3464.5v4679.9 4679.9h3464.5 3464.5z"/><path d="m5308.2 3714.6c-160.8-411.5-890-2312.2-897.7-2337.1-7.7-30.6 3.8-34.5 132.1-28.7l139.7 5.7 369.4 957c202.9 526.4 411.5 1066.1 463.2 1202l93.8 243.1h-141.7c-130.1.1-143.5-3.7-158.8-42z"/><path d="m3468.7 2839.9-736.9-380.9v-88.1-90l725.4-373.2c400-206.7 738.8-379 752.2-384.7 21-7.7 24.9 11.5 21 99.5l-5.7 109.1-616.3 310.1c-338.8 170.4-622.1 315.8-629.7 321.6-5.7 7.7 273.7 155 622.1 329.2l633.6 317.7v105.3c0 57.4-5.7 105.3-13.4 105.3-9.6 0-346.5-172.3-752.3-380.9z"/><path d="m5765.6 3115.5v-105.3l641.2-319.7 641.2-321.5-641.2-319.6-641.2-321.6v-105.3c0-57.4 5.7-105.3 15.3-105.3 7.7 1.9 344.5 172.3 750.3 380.9l736.9 380.9v91.9 91.9l-736.9 379c-405.8 206.7-742.7 379-750.3 379-9.5 0-15.3-47.9-15.3-105.3z"/><path d="m3066.8 282.7v-105.3h402 402v105.3 105.3h-402-402z"/><path d="m4291.8 282.7v-105.3h402 402v105.3 105.3h-402-402z"/><path d="m5306.2 282.7v-105.3l407.7 3.8 405.8 5.7 5.7 101.4 5.7 99.5h-411.5-413.4z"/><path d="m6531.2 244.4v-105.3l407.7 3.8 405.8 5.7 5.7 101.4 5.7 99.5h-411.5-413.4z"/><path d="m3066.8-119.3v-105.3h612.5 612.5v105.3 105.3h-612.5-612.5z"/><path d="m4904.3-119.3v-105.3h201 201v105.3 105.3h-201-201z"/><path d="m5918.7-119.3v-105.3h201 201v105.3 105.3h-201-201z"/><path d="m2645.7-530.8v-95.7h612.5 612.5v95.7 95.7h-612.5-612.5z"/><path d="m4693.7-530.8v-95.7h201 201v95.7 95.7h-201-201z"/><path d="m5516.8-530.8v-95.7h402 402v95.7 95.7h-402-402z"/><path d="m2856.2-942.3v-105.3h612.5 612.5v105.3 105.3h-612.5-612.5z"/><path d="m4487-936.6 5.7-101.4h201 201l5.7 101.4 5.7 99.5h-212.5-212.5z"/><path d="m5306.2-942.3v-105.3h507.2 507.2v105.3 105.3h-507.2-507.2z"/><path d="m6937-974.8 5.7-101.4h201 201l5.7 101.4 5.7 99.5h-212.4-212.5z"/><path d="m3271.6-1252.4c-7.7-5.7-13.4-53.6-13.4-105.3v-91.9h210.5 210.5v105.3 105.3h-197.1c-109.1 0-204.8-5.7-210.5-13.4z"/><path d="m4081.2-1344.3v-105.3h612.5 612.5v105.3 105.3h-612.5-612.5z"/><path d="m3066.8-1746.2v-105.3h402 402v105.3 105.3h-402-402z"/><path d="m4496.6-1654.3c-7.7-5.7-13.4-53.6-13.4-105.3v-91.9h612.5 612.5v105.3 105.3h-599.1c-331.1 0-606.8-5.8-612.5-13.4z"/><path d="m3832.4-2157.7c0-72.7 7.7-95.7 28.7-97.6h823 813.5c11.5 1.9 19.1 45.9 19.1 97.6v95.7h-842.2-842.2v-95.7z"/><path d="m3066.8-2569.3v-105.3h612.5 612.5v105.3 105.3h-612.5-612.5z"/><path d="m4904.3-2569.3v-105.3h507.2 507.2v105.3 105.3h-507.2-507.2z"/><path d="m2659.1-2879.3c-7.7-5.7-13.4-53.6-13.4-105.3v-91.9h612.5 612.5v105.3 105.3h-599.1c-331.1 0-606.8-5.8-612.5-13.4z"/><path d="m4291.8-2971.2v-105.3h402 402v105.3 105.3h-402-402z"/><path d="m5516.8-2971.2v-105.3h402 402v105.3 105.3h-402-402z"/><path d="m6741.8-3009.5v-105.3h402 401.9v105.3 105.3h-401.9-402z"/><path d="m3258.2-3382.7v-95.7h612.5 612.5v95.7 95.7h-612.5-612.5z"/><path d="m5095.7-3382.7v-95.7h210.5 210.5v95.7 95.7h-210.5-210.5z"/><path d="m6129.3-3382.7v-95.7h201 201v95.7 95.7h-201-201z"/></g></svg>