<svg height="21.0007cm" viewBox="0 0 116930 82680" width="29.7002cm" xmlns="http://www.w3.org/2000/svg"><g stroke-linecap="round" stroke-linejoin="round"><g stroke="#840000"><path d="m69690 65360h42520v12600h-42520z" fill="none" stroke-width="60"/><path d="m3940 3940h109050v74800h-109050z" fill="none" stroke-width="60"/><path d="m4720 4720h107490v73240h-107490z" fill="none" stroke-width="60"/><path d="m23620 4720v-780" fill="none" stroke-width="60"/><path d="m43310 4720v-780" fill="none" stroke-width="60"/><path d="m62990 4720v-780" fill="none" stroke-width="60"/><path d="m82680 4720v-780" fill="none" stroke-width="60"/><path d="m102360 4720v-780" fill="none" stroke-width="60"/><g fill="#840000" fill-opacity="0" stroke-width="60"><text font-size="680" lengthAdjust="spacingAndGlyphs" opacity="0" textLength="550" x="13780" y="4580">1</text><path d="m14190 4560h-290"/><path d="m14050 4560v-510l-50 70-50 50-50 20"/></g><g fill="#840000" fill-opacity="0" stroke-width="60"><text font-size="680" lengthAdjust="spacingAndGlyphs" opacity="0" textLength="550" x="33460" y="4580">2</text><path d="m33580 4090 30-20 50-20h120l50 20 20 20 20 50v50l-20 70-290 300h310"/></g><g fill="#840000" fill-opacity="0" stroke-width="60"><text font-size="680" lengthAdjust="spacingAndGlyphs" opacity="0" textLength="550" x="53150" y="4580">3</text><path d="m53250 4050h310l-170 190h80l50 20 20 30 20 50v120l-20 50-20 20-50 30h-150l-50-30-20-20"/></g><g fill="#840000" fill-opacity="0" stroke-width="60"><text font-size="680" lengthAdjust="spacingAndGlyphs" opacity="0" textLength="550" x="72830" y="4580">4</text><path d="m73200 4220v340"/><path d="m73070 4020-120 370h320"/></g><g fill="#840000" fill-opacity="0" stroke-width="60"><text font-size="680" lengthAdjust="spacingAndGlyphs" opacity="0" textLength="550" x="92520" y="4580">5</text><path d="m92910 4050h-240l-30 240 30-30 50-20h120l50 20 20 30 20 50v120l-20 50-20 20-50 30h-120l-50-30-30-20"/></g><g fill="#840000" fill-opacity="0" stroke-width="60"><text font-size="680" lengthAdjust="spacingAndGlyphs" opacity="0" textLength="550" x="112200" y="4580">6</text><path d="m112570 4050h-100l-50 20-20 20-50 80-30 90v200l30 50 20 20 50 30h100l50-30 20-20 20-50v-120l-20-50-20-30-50-20h-100l-50 20-20 30-30 50"/></g><path d="m23620 77960v780" fill="none" stroke-width="60"/><path d="m43310 77960v780" fill="none" stroke-width="60"/><path d="m62990 77960v780" fill="none" stroke-width="60"/><path d="m82680 77960v780" fill="none" stroke-width="60"/><path d="m102360 77960v780" fill="none" stroke-width="60"/><g fill="#840000" fill-opacity="0" stroke-width="60"><text font-size="680" lengthAdjust="spacingAndGlyphs" opacity="0" textLength="550" x="13780" y="78600">1</text><path d="m14190 78580h-290"/><path d="m14050 78580v-510l-50 70-50 50-50 20"/></g><g fill="#840000" fill-opacity="0" stroke-width="60"><text font-size="680" lengthAdjust="spacingAndGlyphs" opacity="0" textLength="550" x="33460" y="78600">2</text><path d="m33580 78110 30-20 50-20h120l50 20 20 20 20 50v50l-20 70-290 300h310"/></g><g fill="#840000" fill-opacity="0" stroke-width="60"><text font-size="680" lengthAdjust="spacingAndGlyphs" opacity="0" textLength="550" x="53150" y="78600">3</text><path d="m53250 78070h310l-170 190h80l50 20 20 30 20 50v120l-20 50-20 20-50 30h-150l-50-30-20-20"/></g><g fill="#840000" fill-opacity="0" stroke-width="60"><text font-size="680" lengthAdjust="spacingAndGlyphs" opacity="0" textLength="550" x="72830" y="78600">4</text><path d="m73200 78240v340"/><path d="m73070 78040-120 370h320"/></g><g fill="#840000" fill-opacity="0" stroke-width="60"><text font-size="680" lengthAdjust="spacingAndGlyphs" opacity="0" textLength="550" x="92520" y="78600">5</text><path d="m92910 78070h-240l-30 240 30-30 50-20h120l50 20 20 30 20 50v120l-20 50-20 20-50 30h-120l-50-30-30-20"/></g><g fill="#840000" fill-opacity="0" stroke-width="60"><text font-size="680" lengthAdjust="spacingAndGlyphs" opacity="0" textLength="550" x="112200" y="78600">6</text><path d="m112570 78070h-100l-50 20-20 20-50 80-30 90v200l30 50 20 20 50 30h100l50-30 20-20 20-50v-120l-20-50-20-30-50-20h-100l-50 20-20 30-30 50"/></g><path d="m3940 23620h780" fill="none" stroke-width="60"/><path d="m3940 43310h780" fill="none" stroke-width="60"/><path d="m3940 62990h780" fill="none" stroke-width="60"/><g fill="#840000" fill-opacity="0" stroke-width="60"><text font-size="680" lengthAdjust="spacingAndGlyphs" opacity="0" text-anchor="middle" textLength="500" x="4330" y="14030">A</text><path d="m4200 13860h250"/><path d="m4160 14010 170-510 170 510"/></g><g fill="#840000" fill-opacity="0" stroke-width="60"><text font-size="680" lengthAdjust="spacingAndGlyphs" opacity="0" text-anchor="middle" textLength="570" x="4330" y="33710">B</text><path d="m4360 33420 70 20 30 30 20 50v70l-20 50-30 20-40 30h-200v-510h170l50 20 20 20 30 50v50l-30 50-20 20-50 30h-170"/></g><g fill="#840000" fill-opacity="0" stroke-width="60"><text font-size="680" lengthAdjust="spacingAndGlyphs" opacity="0" text-anchor="middle" textLength="570" x="4330" y="53400">C</text><path d="m4480 53330-20 20-70 30h-50l-80-30-40-50-30-50-20-90v-80l20-90 30-50 40-50 80-20h50l70 20 20 20"/></g><g fill="#840000" fill-opacity="0" stroke-width="60"><text font-size="680" lengthAdjust="spacingAndGlyphs" opacity="0" text-anchor="middle" textLength="570" x="4330" y="73080">D</text><path d="m4190 73060v-510h120l80 20 40 50 30 50 20 90v80l-20 90-30 50-40 50-80 30z"/></g><path d="m112990 23620h-780" fill="none" stroke-width="60"/><path d="m112990 43310h-780" fill="none" stroke-width="60"/><path d="m112990 62990h-780" fill="none" stroke-width="60"/><g fill="#840000" fill-opacity="0" stroke-width="60"><text font-size="680" lengthAdjust="spacingAndGlyphs" opacity="0" text-anchor="middle" textLength="500" x="112600" y="14030">A</text><path d="m112470 13860h250"/><path d="m112430 14010 170-510 170 510"/></g><g fill="#840000" fill-opacity="0" stroke-width="60"><text font-size="680" lengthAdjust="spacingAndGlyphs" opacity="0" text-anchor="middle" textLength="570" x="112600" y="33710">B</text><path d="m112630 33420 70 20 30 30 20 50v70l-20 50-30 20-40 30h-200v-510h170l50 20 20 20 30 50v50l-30 50-20 20-50 30h-170"/></g><g fill="#840000" fill-opacity="0" stroke-width="60"><text font-size="680" lengthAdjust="spacingAndGlyphs" opacity="0" text-anchor="middle" textLength="570" x="112600" y="53400">C</text><path d="m112750 53330-20 20-70 30h-50l-80-30-40-50-30-50-20-90v-80l20-90 30-50 40-50 80-20h50l70 20 20 20"/></g><g fill="#840000" fill-opacity="0" stroke-width="60"><text font-size="680" lengthAdjust="spacingAndGlyphs" opacity="0" text-anchor="middle" textLength="570" x="112600" y="73080">D</text><path d="m112460 73060v-510h120l80 20 40 50 30 50 20 90v80l-20 90-30 50-40 50-80 30z"/></g><g fill="#840000" fill-opacity="0" stroke-width="60"><text font-size="780" lengthAdjust="spacingAndGlyphs" opacity="0" textLength="2760" x="78740" y="76320">Date:</text><path d="m78910 76290v-590h140l80 30 60 60 20 50 30 110v90l-30 110-20 60-60 50-80 30z"/><path d="m79750 76290v-310l-30-50-60-30h-110l-50 30"/><path d="m79750 76260-60 30h-140l-50-30-30-50v-60l30-50 50-30h140l60-30"/><path d="m79950 75900h220"/><path d="m80030 75700v510l30 50 50 30h60"/><path d="m80590 76260-50 30h-120l-50-30-30-50v-230l30-50 50-30h120l50 30 30 50v60l-280 60"/><path d="m80870 76240 30 20-30 30-30-30 30-20v50"/><path d="m80870 75930 30 20-30 30-30-30 30-20v50"/></g><path d="m69690 76580h42520" fill="none" stroke-width="60"/><g fill="#840000" fill-opacity="0" stroke-width="60"><text font-size="780" lengthAdjust="spacingAndGlyphs" opacity="0" textLength="13520" x="70080" y="77420">KiCad E.D.A. kicad (5.1.5-0)</text><path d="m70250 77390v-590"/><path d="m70580 77390-250-340"/><path d="m70580 76800-330 340"/><path d="m70840 77390v-390"/><path d="m70840 76800-30 30 30 30 20-30-20-30v60"/><path d="m71450 77340-20 20-90 30h-50l-90-30-60-50-20-60-30-110v-90l30-110 20-50 60-60 90-30h50l90 30 20 30"/><path d="m71960 77390v-310l-30-50-50-30h-120l-50 30"/><path d="m71960 77360-60 30h-140l-50-30-30-50v-60l30-50 50-30h140l60-30"/><path d="m72490 77390v-590"/><path d="m72490 77360-50 30h-120l-50-30-30-20-30-60v-170l30-60 30-20 50-30h120l50 30"/><path d="m73220 77080h200"/><path d="m73500 77390h-280v-590h280"/><path d="m73760 77340 30 20-30 30-30-30 30-20v50"/><path d="m74040 77390v-590h140l80 30 60 60 30 50 30 110v90l-30 110-30 60-60 50-80 30z"/><path d="m74630 77340 30 20-30 30-30-30 30-20v50"/><path d="m74880 77220h280"/><path d="m74830 77390 190-590 200 590"/><path d="m75420 77340 20 20-20 30-30-30 30-20v50"/><path d="m76600 77390v-590"/><path d="m76650 77170 170 220"/><path d="m76820 77000-220 220"/><path d="m77070 77390v-390"/><path d="m77070 76800-30 30 30 30 30-30-30-30v60"/><path d="m77610 77360-60 30h-110l-60-30-30-20-20-60v-170l20-60 30-20 60-30h110l60 30"/><path d="m78110 77390v-310l-30-50-50-30h-110l-60 30"/><path d="m78110 77360-50 30h-140l-60-30-30-50v-60l30-50 60-30h140l50-30"/><path d="m78650 77390v-590"/><path d="m78650 77360-60 30h-110l-60-30-30-20-20-60v-170l20-60 30-20 60-30h110l60 30"/><path d="m79550 77620-30-30-60-90-30-50-30-90-20-140v-110l20-140 30-80 30-60 60-80 30-30"/><path d="m80050 76800h-280l-30 280 30-30 60-20h140l50 20 30 30 30 60v140l-30 60-30 20-50 30h-140l-60-30-30-20"/><path d="m80330 77340 30 20-30 30-30-30 30-20v50"/><path d="m80920 77390h-340"/><path d="m80750 77390v-590l-50 90-60 50-60 30"/><path d="m81170 77340 30 20-30 30-20-30 20-20v50"/><path d="m81740 76800h-280l-30 280 30-30 50-20h140l60 20 30 30 20 60v140l-20 60-30 20-60 30h-140l-50-30-30-20"/><path d="m82020 77170h450"/><path d="m82860 76800h60l50 30 30 30 30 50 30 120v140l-30 110-30 60-30 20-50 30h-60l-60-30-20-20-30-60-30-110v-140l30-120 30-50 20-30z"/><path d="m83250 77620 30-30 60-90 30-50 20-90 30-140v-110l-30-140-20-80-30-60-60-80-30-30"/></g><path d="m69690 75400h42520" fill="none" stroke-width="60"/><g fill="#840000" fill-opacity="0" stroke-width="120"><text font-size="780" lengthAdjust="spacingAndGlyphs" opacity="0" textLength="2340" x="103540" y="76320">Rev:</text><path d="m104090 76290-200-280"/><path d="m103750 76290v-590h230l50 30 30 30 30 50v90l-30 50-30 30-50 30h-230"/><path d="m104570 76260-60 30h-110l-60-30-20-50v-230l20-50 60-30h110l60 30 30 50v60l-280 60"/><path d="m104790 75900 140 390 140-390"/><path d="m105300 76240 30 20-30 30-30-30 30-20v50"/><path d="m105300 75930 30 20-30 30-30-30 30-20v50"/></g><g fill="#840000" fill-opacity="0" stroke-width="60"><text font-size="780" lengthAdjust="spacingAndGlyphs" opacity="0" textLength="3780" x="70080" y="76320">Size: A4</text><path d="m70220 76260 80 30h140l60-30 30-20 20-60v-60l-20-50-30-30-60-30-110-30-60-30-20-20-30-60v-60l30-50 20-30 60-30h140l80 30"/><path d="m70810 76290v-390"/><path d="m70810 75700-30 30 30 30 30-30-30-30v60"/><path d="m71030 75900h310l-310 390h310"/><path d="m71790 76260-60 30h-110l-50-30-30-50v-230l30-50 50-30h110l60 30 30 50v60l-280 60"/><path d="m72070 76240 30 20-30 30-30-30 30-20v50"/><path d="m72070 75930 30 20-30 30-30-30 30-20v50"/><path d="m72770 76120h290"/><path d="m72720 76290 190-590 200 590"/><path d="m73560 75900v390"/><path d="m73420 75670-140 430h370"/></g><g fill="#840000" fill-opacity="0" stroke-width="60"><text font-size="780" lengthAdjust="spacingAndGlyphs" opacity="0" textLength="3350" x="103540" y="77420">Id: 1/1</text><path d="m103710 77390v-590"/><path d="m104240 77390v-590"/><path d="m104240 77360-60 30h-110l-60-30-20-20-30-60v-170l30-60 20-20 60-30h110l60 30"/><path d="m104520 77340 30 20-30 30-30-30 30-20v50"/><path d="m104520 77030 30 20-30 30-30-30 30-20v50"/><path d="m105560 77390h-340"/><path d="m105390 77390v-590l-50 90-60 50-60 30"/><path d="m106230 76770-500 760"/><path d="m106740 77390h-340"/><path d="m106570 77390v-590l-50 90-60 50-60 30"/></g><path d="m69690 73820h42520" fill="none" stroke-width="60"/><g fill="#840000" fill-opacity="0" stroke-width="160"><text font-size="1050" lengthAdjust="spacingAndGlyphs" opacity="0" textLength="3710" x="70080" y="74920">Title:</text><path d="m70360 74090h450"/><path d="m70480 74880 100-790"/><path d="m70970 74880 70-520"/><path d="m71070 74090-40 40 30 40 50-40-40-40-10 80"/><path d="m71300 74360h300"/><path d="m71450 74090-90 680 30 70 70 40h80"/><path d="m71910 74880-70-40-20-70 80-680"/><path d="m72520 74840-80 40h-150l-70-40-30-70 40-300 50-80 80-30h150l70 30 30 80-10 70-390 80"/><path d="m72900 74810 30 30-40 40-30-40 40-30-10 70"/><path d="m72950 74390 40 40-50 40-30-40 40-40-10 80"/></g><g fill="#840000" fill-opacity="0" stroke-width="60"><text font-size="780" lengthAdjust="spacingAndGlyphs" opacity="0" textLength="7910" x="70080" y="73400">File: keydpad.sch</text><path d="m70440 73060h-190"/><path d="m70250 73370v-590h280"/><path d="m70750 73370v-390"/><path d="m70750 72780-30 30 30 30 30-30-30-30v60"/><path d="m71120 73370-60-30-30-50v-510"/><path d="m71570 73340-60 30h-110l-60-30-30-50v-230l30-50 60-30h110l60 30 20 50v60l-280 60"/><path d="m71850 73320 30 20-30 30-30-30 30-20v50"/><path d="m71850 73010 30 20-30 30-30-30 30-20v50"/><path d="m72580 73370v-590"/><path d="m72630 73150 170 220"/><path d="m72800 72980-220 220"/><path d="m73280 73340-60 30h-110l-50-30-30-50v-230l30-50 50-30h110l60 30 30 50v60l-280 60"/><path d="m73500 72980 150 390"/><path d="m73790 72980-140 390-60 140-30 30-60 30"/><path d="m74260 73370v-590"/><path d="m74260 73340-50 30h-120l-50-30-30-20-30-60v-170l30-60 30-20 50-30h120l50 30"/><path d="m74540 72980v590"/><path d="m74540 73010 60-30h110l60 30 30 20 30 60v170l-30 60-30 20-60 30h-110l-60-30"/><path d="m75330 73370v-310l-30-50-50-30h-120l-50 30"/><path d="m75330 73340-60 30h-140l-50-30-30-50v-60l30-50 50-30h140l60-30"/><path d="m75860 73370v-590"/><path d="m75860 73340-50 30h-110l-60-30-30-20-30-60v-170l30-60 30-20 60-30h110l50 30"/><path d="m76150 73320 20 20-20 30-30-30 30-20v50"/><path d="m76400 73340 50 30h120l50-30 30-50v-30l-30-60-50-20h-90l-50-30-30-60v-30l30-50 50-30h90l50 30"/><path d="m77160 73340-60 30h-110l-60-30-30-20-20-60v-170l20-60 30-20 60-30h110l60 30"/><path d="m77410 73370v-590"/><path d="m77660 73370v-310l-30-50-50-30h-90l-50 30-30 20"/></g><path d="m69690 71460h42520" fill="none" stroke-width="60"/><g fill="#840000" fill-opacity="0" stroke-width="60"><text font-size="780" lengthAdjust="spacingAndGlyphs" opacity="0" textLength="3850" x="70080" y="72340">Sheet: /</text><path d="m70220 72280 80 30h140l60-30 30-20 20-60v-60l-20-50-30-30-60-30-110-30-60-30-20-20-30-60v-60l30-50 20-30 60-30h140l80 30"/><path d="m70810 72310v-590"/><path d="m71060 72310v-310l-30-50-50-30h-90l-50 30-30 20"/><path d="m71570 72280-60 30h-110l-60-30-30-50v-230l30-50 60-30h110l60 30 20 50v60l-280 60"/><path d="m72070 72280-50 30h-120l-50-30-30-50v-230l30-50 50-30h120l50 30 30 50v60l-280 60"/><path d="m72270 71920h220"/><path d="m72350 71720v510l30 50 60 30h50"/><path d="m72690 72260 30 20-30 30-30-30 30-20v50"/><path d="m72690 71950 30 20-30 30-30-30 30-20v50"/><path d="m73840 71690-500 760"/></g><path d="m77560 75400v1180" fill="none" stroke-width="60"/><path d="m102760 75400v2560" fill="none" stroke-width="60"/><g fill="#840000" fill-opacity="0" stroke-width="0"><path d="m64000 32000h8000v18000h-8000z" fill="#ffffc2" fill-opacity=".6" stroke="none"/><g stroke-linecap="round" stroke-linejoin="round"><g fill="#840000" fill-opacity="0" stroke="#840000" stroke-width="100"><path d="m64000 32000h8000v18000h-8000z"/><path d="m64000 32000h8000v18000h-8000z"/></g><g stroke-width="60"><path d="m64000 36000h-1000" fill="none" stroke="#840000"/><g fill="#008484" fill-opacity="0" stroke="#008484"><text font-size="660" lengthAdjust="spacingAndGlyphs" opacity="0" textLength="2420" x="64400" y="36250">D1/TX</text><path d="m64540 36220v-500h120l70 30 50 40 30 50 20 100v70l-20 90-30 50-50 50-70 20z"/><path d="m65310 36220h-290"/><path d="m65160 36220v-500l-40 70-50 50-50 20"/><path d="m65880 35700-430 640"/><path d="m65970 35720h290"/><path d="m66120 36220v-500"/><path d="m66380 35720 330 500"/><path d="m66710 35720-330 500"/></g><g fill="#840000" fill-opacity="0" stroke="#840000"><text font-size="660" lengthAdjust="spacingAndGlyphs" opacity="0" text-anchor="middle" textLength="540" x="63500" y="35900">1</text><path d="m63640 35870h-290"/><path d="m63500 35870v-500l-50 70-50 50-50 20"/><path d="m64000 42000h-1000"/></g><g fill="#008484" fill-opacity="0" stroke="#008484"><text font-size="660" lengthAdjust="spacingAndGlyphs" opacity="0" textLength="1040" x="64400" y="42250">D7</text><path d="m64540 42220v-500h120l70 30 50 40 30 50 20 100v70l-20 90-30 50-50 50-70 20z"/><path d="m65000 41720h330l-210 500"/></g><g fill="#840000" fill-opacity="0" stroke="#840000"><text font-size="660" lengthAdjust="spacingAndGlyphs" opacity="0" text-anchor="middle" textLength="1010" x="63500" y="41900">10</text><path d="m63400 41870h-290"/><path d="m63260 41870v-500l-50 70-50 50-50 20"/><path d="m63710 41370h50l40 30 30 20 20 50 30 90v120l-30 100-20 40-30 30-40 20h-50l-50-20-20-30-30-40-20-100v-120l20-90 30-50 20-20z"/><path d="m64000 43000h-1000"/></g><g fill="#008484" fill-opacity="0" stroke="#008484"><text font-size="660" lengthAdjust="spacingAndGlyphs" opacity="0" textLength="1040" x="64400" y="43250">D8</text><path d="m64540 43220v-500h120l70 30 50 40 30 50 20 100v70l-20 90-30 50-50 50-70 20z"/><path d="m65120 42940-50-30-30-20-20-50v-20l20-50 30-20 50-30h90l50 30 20 20 30 50v20l-30 50-20 20-50 30h-90l-50 20-30 20-20 50v100l20 40 30 30 50 20h90l50-20 20-30 30-40v-100l-30-50-20-20-50-20"/></g><g fill="#840000" fill-opacity="0" stroke="#840000"><text font-size="660" lengthAdjust="spacingAndGlyphs" opacity="0" text-anchor="middle" textLength="1010" x="63500" y="42900">11</text><path d="m63400 42870h-290"/><path d="m63260 42870v-500l-50 70-50 50-50 20"/><path d="m63880 42870h-290"/><path d="m63730 42870v-500l-40 70-50 50-50 20"/><path d="m64000 44000h-1000"/></g><g fill="#008484" fill-opacity="0" stroke="#008484"><text font-size="660" lengthAdjust="spacingAndGlyphs" opacity="0" textLength="1040" x="64400" y="44250">D9</text><path d="m64540 44220v-500h120l70 30 50 40 30 50 20 100v70l-20 90-30 50-50 50-70 20z"/><path d="m65070 44220h90l50-20 20-30 50-70 30-90v-190l-30-50-20-20-50-30h-90l-50 30-30 20-20 50v120l20 40 30 30 50 20h90l50-20 20-30 30-40"/></g><g fill="#840000" fill-opacity="0" stroke="#840000"><text font-size="660" lengthAdjust="spacingAndGlyphs" opacity="0" text-anchor="middle" textLength="1010" x="63500" y="43900">12</text><path d="m63400 43870h-290"/><path d="m63260 43870v-500l-50 70-50 50-50 20"/><path d="m63590 43420 20-20 50-30h120l50 30 20 20 30 50v40l-30 80-280 280h310"/><path d="m64000 45000h-1000"/></g><g fill="#008484" fill-opacity="0" stroke="#008484"><text font-size="660" lengthAdjust="spacingAndGlyphs" opacity="0" textLength="1510" x="64400" y="45250">D10</text><path d="m64540 45220v-500h120l70 30 50 40 30 50 20 100v70l-20 90-30 50-50 50-70 20z"/><path d="m65310 45220h-290"/><path d="m65160 45220v-500l-40 70-50 50-50 20"/><path d="m65620 44720h40l50 30 20 20 30 50 20 90v120l-20 100-30 40-20 30-50 20h-40l-50-20-30-30-20-40-20-100v-120l20-90 20-50 30-20z"/></g><g fill="#840000" fill-opacity="0" stroke="#840000"><text font-size="660" lengthAdjust="spacingAndGlyphs" opacity="0" text-anchor="middle" textLength="1010" x="63500" y="44900">13</text><path d="m63400 44870h-290"/><path d="m63260 44870v-500l-50 70-50 50-50 20"/><path d="m63570 44370h310l-170 190h70l50 30 20 20 30 50v120l-30 40-20 30-50 20h-140l-50-20-20-30"/><path d="m64000 46000h-1000"/></g><g fill="#008484" fill-opacity="0" stroke="#008484"><text font-size="660" lengthAdjust="spacingAndGlyphs" opacity="0" textLength="1510" x="64400" y="46250">D11</text><path d="m64540 46220v-500h120l70 30 50 40 30 50 20 100v70l-20 90-30 50-50 50-70 20z"/><path d="m65310 46220h-290"/><path d="m65160 46220v-500l-40 70-50 50-50 20"/><path d="m65780 46220h-280"/><path d="m65640 46220v-500l-50 70-50 50-40 20"/></g><g fill="#840000" fill-opacity="0" stroke="#840000"><text font-size="660" lengthAdjust="spacingAndGlyphs" opacity="0" text-anchor="middle" textLength="1010" x="63500" y="45900">14</text><path d="m63400 45870h-290"/><path d="m63260 45870v-500l-50 70-50 50-50 20"/><path d="m63830 45540v330"/><path d="m63710 45350-120 350h310"/><path d="m64000 47000h-1000"/></g><g fill="#008484" fill-opacity="0" stroke="#008484"><text font-size="660" lengthAdjust="spacingAndGlyphs" opacity="0" textLength="1510" x="64400" y="47250">D12</text><path d="m64540 47220v-500h120l70 30 50 40 30 50 20 100v70l-20 90-30 50-50 50-70 20z"/><path d="m65310 47220h-290"/><path d="m65160 47220v-500l-40 70-50 50-50 20"/><path d="m65500 46770 20-20 50-30h120l40 30 30 20 20 50v40l-20 80-290 280h310"/></g><g fill="#840000" fill-opacity="0" stroke="#840000"><text font-size="660" lengthAdjust="spacingAndGlyphs" opacity="0" text-anchor="middle" textLength="1010" x="63500" y="46900">15</text><path d="m63400 46870h-290"/><path d="m63260 46870v-500l-50 70-50 50-50 20"/><path d="m63850 46370h-240l-20 240 20-20 50-30h120l50 30 20 20 30 50v120l-30 40-20 30-50 20h-120l-50-20-20-30"/><path d="m64000 48000h-1000"/></g><g fill="#008484" fill-opacity="0" stroke="#008484"><text font-size="660" lengthAdjust="spacingAndGlyphs" opacity="0" textLength="1510" x="64400" y="48250">D13</text><path d="m64540 48220v-500h120l70 30 50 40 30 50 20 100v70l-20 90-30 50-50 50-70 20z"/><path d="m65310 48220h-290"/><path d="m65160 48220v-500l-40 70-50 50-50 20"/><path d="m65470 47720h310l-160 190h70l40 30 30 20 20 50v120l-20 40-30 30-40 20h-150l-40-20-30-30"/></g><g fill="#840000" fill-opacity="0" stroke="#840000"><text font-size="660" lengthAdjust="spacingAndGlyphs" opacity="0" text-anchor="middle" textLength="1010" x="63500" y="47900">16</text><path d="m63400 47870h-290"/><path d="m63260 47870v-500l-50 70-50 50-50 20"/><path d="m63830 47370h-100l-40 30-30 20-50 70-20 100v190l20 40 30 30 50 20h90l50-20 20-30 30-40v-120l-30-50-20-20-50-30h-90l-50 30-30 20-20 50"/><path d="m69000 32000v-1000"/></g><g fill="#008484" fill-opacity="0" stroke="#008484"><text font-size="660" lengthAdjust="spacingAndGlyphs" opacity="0" text-anchor="end" textLength="1440" transform="matrix(0 -1 1 0 36600 101400)" x="69000" y="32650">3V3</text><path d="m68720 33730v-300l190 160v-70l30-50 20-20 50-20h120l40 20 30 20 20 50v140l-20 50-30 20"/><path d="m68720 33280 500-160-500-170"/><path d="m68720 32830v-310l190 170v-70l30-50 20-30 50-20h120l40 20 30 30 20 50v140l-20 50-30 20"/></g><g fill="#840000" fill-opacity="0" stroke="#840000"><text font-size="660" lengthAdjust="spacingAndGlyphs" opacity="0" text-anchor="middle" textLength="1010" transform="matrix(0 -1 1 0 37400 100400)" x="68900" y="31500">17</text><path d="m68870 31590v290"/><path d="m68870 31730h-500l70 50 50 50 20 50"/><path d="m68370 31420v-330l500 210"/><path d="m72000 39000h1000"/></g><g fill="#008484" fill-opacity="0" stroke="#008484"><text font-size="660" lengthAdjust="spacingAndGlyphs" opacity="0" text-anchor="end" textLength="1870" x="71600" y="39250">AREF</text><path d="m69850 39080h240"/><path d="m69800 39220 170-500 170 500"/><path d="m70590 39220-170-240"/><path d="m70300 39220v-500h190l50 30 30 20 20 50v70l-20 50-30 20-50 20h-190"/><path d="m70800 38960h170"/><path d="m71040 39220h-240v-500h240"/><path d="m71420 38960h-160"/><path d="m71260 39220v-500h230"/></g><g fill="#840000" fill-opacity="0" stroke="#840000"><text font-size="660" lengthAdjust="spacingAndGlyphs" opacity="0" text-anchor="middle" textLength="1010" x="72500" y="38900">18</text><path d="m72400 38870h-290"/><path d="m72260 38870v-500l-50 70-50 50-50 20"/><path d="m72690 38590-50-30-30-20-20-50v-20l20-50 30-20 50-30h90l50 30 20 20 30 50v20l-30 50-20 20-50 30h-90l-50 20-30 20-20 50v100l20 40 30 30 50 20h90l50-20 20-30 30-40v-100l-30-50-20-20-50-20"/><path d="m72000 41000h1000"/></g><g fill="#008484" fill-opacity="0" stroke="#008484"><text font-size="660" lengthAdjust="spacingAndGlyphs" opacity="0" text-anchor="end" textLength="960" x="71600" y="41250">A0</text><path d="m70760 41080h230"/><path d="m70710 41220 160-500 170 500"/><path d="m71300 40720h50l50 30 20 20 30 50 20 90v120l-20 100-30 40-20 30-50 20h-50l-40-20-30-30-20-40-30-100v-120l30-90 20-50 30-20z"/></g><g fill="#840000" fill-opacity="0" stroke="#840000"><text font-size="660" lengthAdjust="spacingAndGlyphs" opacity="0" text-anchor="middle" textLength="1010" x="72500" y="40900">19</text><path d="m72400 40870h-290"/><path d="m72260 40870v-500l-50 70-50 50-50 20"/><path d="m72640 40870h90l50-20 20-30 50-70 30-90v-190l-30-50-20-20-50-30h-90l-50 30-30 20-20 50v120l20 40 30 30 50 20h90l50-20 20-30 30-40"/><path d="m64000 35000h-1000"/></g><g fill="#008484" fill-opacity="0" stroke="#008484"><text font-size="660" lengthAdjust="spacingAndGlyphs" opacity="0" textLength="2540" x="64400" y="35250">D0/RX</text><path d="m64540 35220v-500h120l70 30 50 40 30 50 20 100v70l-20 90-30 50-50 50-70 20z"/><path d="m65140 34720h50l40 30 30 20 20 50 30 90v120l-30 100-20 40-30 30-40 20h-50l-50-20-20-30-30-40-20-100v-120l20-90 30-50 20-20z"/><path d="m65880 34700-430 640"/><path d="m66330 35220-170-240"/><path d="m66040 35220v-500h190l50 30 30 20 20 50v70l-20 50-30 20-50 20h-190"/><path d="m66500 34720 330 500"/><path d="m66830 34720-330 500"/></g><g fill="#840000" fill-opacity="0" stroke="#840000"><text font-size="660" lengthAdjust="spacingAndGlyphs" opacity="0" text-anchor="middle" textLength="540" x="63500" y="34900">2</text><path d="m63350 34420 30-20 40-30h120l50 30 20 20 30 50v40l-30 80-280 280h310"/><path d="m72000 42000h1000"/></g><g fill="#008484" fill-opacity="0" stroke="#008484"><text font-size="660" lengthAdjust="spacingAndGlyphs" opacity="0" text-anchor="end" textLength="960" x="71600" y="42250">A1</text><path d="m70760 42080h230"/><path d="m70710 42220 160-500 170 500"/><path d="m71470 42220h-290"/><path d="m71330 42220v-500l-50 70-50 50-50 20"/></g><g fill="#840000" fill-opacity="0" stroke="#840000"><text font-size="660" lengthAdjust="spacingAndGlyphs" opacity="0" text-anchor="middle" textLength="1010" x="72500" y="41900">20</text><path d="m72110 41420 30-20 50-30h110l50 30 30 20 20 50v40l-20 80-290 280h310"/><path d="m72710 41370h50l40 30 30 20 20 50 30 90v120l-30 100-20 40-30 30-40 20h-50l-50-20-20-30-30-40-20-100v-120l20-90 30-50 20-20z"/><path d="m72000 43000h1000"/></g><g fill="#008484" fill-opacity="0" stroke="#008484"><text font-size="660" lengthAdjust="spacingAndGlyphs" opacity="0" text-anchor="end" textLength="960" x="71600" y="43250">A2</text><path d="m70760 43080h230"/><path d="m70710 43220 160-500 170 500"/><path d="m71180 42770 30-20 50-30h110l50 30 30 20 20 50v40l-20 80-290 280h310"/></g><g fill="#840000" fill-opacity="0" stroke="#840000"><text font-size="660" lengthAdjust="spacingAndGlyphs" opacity="0" text-anchor="middle" textLength="1010" x="72500" y="42900">21</text><path d="m72110 42420 30-20 50-30h110l50 30 30 20 20 50v40l-20 80-290 280h310"/><path d="m72880 42870h-290"/><path d="m72730 42870v-500l-40 70-50 50-50 20"/><path d="m72000 44000h1000"/></g><g fill="#008484" fill-opacity="0" stroke="#008484"><text font-size="660" lengthAdjust="spacingAndGlyphs" opacity="0" text-anchor="end" textLength="960" x="71600" y="44250">A3</text><path d="m70760 44080h230"/><path d="m70710 44220 160-500 170 500"/><path d="m71160 43720h310l-170 190h70l50 30 30 20 20 50v120l-20 40-30 30-50 20h-140l-50-20-20-30"/></g><g fill="#840000" fill-opacity="0" stroke="#840000"><text font-size="660" lengthAdjust="spacingAndGlyphs" opacity="0" text-anchor="middle" textLength="1010" x="72500" y="43900">22</text><path d="m72110 43420 30-20 50-30h110l50 30 30 20 20 50v40l-20 80-290 280h310"/><path d="m72590 43420 20-20 50-30h120l50 30 20 20 30 50v40l-30 80-280 280h310"/><path d="m72000 45000h1000"/></g><g fill="#008484" fill-opacity="0" stroke="#008484"><text font-size="660" lengthAdjust="spacingAndGlyphs" opacity="0" text-anchor="end" textLength="960" x="71600" y="45250">A4</text><path d="m70760 45080h230"/><path d="m70710 45220 160-500 170 500"/><path d="m71420 44890v330"/><path d="m71300 44700-120 350h310"/></g><g fill="#840000" fill-opacity="0" stroke="#840000"><text font-size="660" lengthAdjust="spacingAndGlyphs" opacity="0" text-anchor="middle" textLength="1010" x="72500" y="44900">23</text><path d="m72110 44420 30-20 50-30h110l50 30 30 20 20 50v40l-20 80-290 280h310"/><path d="m72570 44370h310l-170 190h70l50 30 20 20 30 50v120l-30 40-20 30-50 20h-140l-50-20-20-30"/><path d="m72000 46000h1000"/></g><g fill="#008484" fill-opacity="0" stroke="#008484"><text font-size="660" lengthAdjust="spacingAndGlyphs" opacity="0" text-anchor="end" textLength="960" x="71600" y="46250">A5</text><path d="m70760 46080h230"/><path d="m70710 46220 160-500 170 500"/><path d="m71450 45720h-240l-30 240 30-20 50-30h110l50 30 30 20 20 50v120l-20 40-30 30-50 20h-110l-50-20-30-30"/></g><g fill="#840000" fill-opacity="0" stroke="#840000"><text font-size="660" lengthAdjust="spacingAndGlyphs" opacity="0" text-anchor="middle" textLength="1010" x="72500" y="45900">24</text><path d="m72110 45420 30-20 50-30h110l50 30 30 20 20 50v40l-20 80-290 280h310"/><path d="m72830 45540v330"/><path d="m72710 45350-120 350h310"/><path d="m72000 47000h1000"/></g><g fill="#008484" fill-opacity="0" stroke="#008484"><text font-size="660" lengthAdjust="spacingAndGlyphs" opacity="0" text-anchor="end" textLength="960" x="71600" y="47250">A6</text><path d="m70760 47080h230"/><path d="m70710 47220 160-500 170 500"/><path d="m71420 46720h-90l-50 30-20 20-50 70-30 100v190l30 40 20 30 50 20h90l50-20 30-30 20-40v-120l-20-50-30-20-50-30h-90l-50 30-20 20-30 50"/></g><g fill="#840000" fill-opacity="0" stroke="#840000"><text font-size="660" lengthAdjust="spacingAndGlyphs" opacity="0" text-anchor="middle" textLength="1010" x="72500" y="46900">25</text><path d="m72110 46420 30-20 50-30h110l50 30 30 20 20 50v40l-20 80-290 280h310"/><path d="m72850 46370h-240l-20 240 20-20 50-30h120l50 30 20 20 30 50v120l-30 40-20 30-50 20h-120l-50-20-20-30"/><path d="m72000 48000h1000"/></g><g fill="#008484" fill-opacity="0" stroke="#008484"><text font-size="660" lengthAdjust="spacingAndGlyphs" opacity="0" text-anchor="end" textLength="960" x="71600" y="48250">A7</text><path d="m70760 48080h230"/><path d="m70710 48220 160-500 170 500"/><path d="m71160 47720h330l-210 500"/></g><g fill="#840000" fill-opacity="0" stroke="#840000"><text font-size="660" lengthAdjust="spacingAndGlyphs" opacity="0" text-anchor="middle" textLength="1010" x="72500" y="47900">26</text><path d="m72110 47420 30-20 50-30h110l50 30 30 20 20 50v40l-20 80-290 280h310"/><path d="m72830 47370h-100l-40 30-30 20-50 70-20 100v190l20 40 30 30 50 20h90l50-20 20-30 30-40v-120l-30-50-20-20-50-30h-90l-50 30-30 20-20 50"/><path d="m70000 32000v-1000"/></g><g fill="#008484" fill-opacity="0" stroke="#008484"><text font-size="660" lengthAdjust="spacingAndGlyphs" opacity="0" text-anchor="end" textLength="1580" transform="matrix(0 -1 1 0 37600 102400)" x="70000" y="32650">+5V</text><path d="m70030 33830v-380"/><path d="m70220 33640h-380"/><path d="m69720 32970v240l240 20-20-20-30-50v-120l30-40 20-30 50-20h120l40 20 30 30 20 40v120l-20 50-30 20"/><path d="m69720 32810 500-170-500-170"/></g><g fill="#840000" fill-opacity="0" stroke="#840000"><text font-size="660" lengthAdjust="spacingAndGlyphs" opacity="0" text-anchor="middle" textLength="1010" transform="matrix(0 -1 1 0 38400 101400)" x="69900" y="31500">27</text><path d="m69420 31880-20-30-30-50v-110l30-50 20-30 50-20h40l80 20 280 290v-310"/><path d="m69370 31420v-330l500 210"/><path d="m72000 35000h1000"/></g><g fill="#008484" fill-opacity="0" stroke="#008484"><text font-size="660" lengthAdjust="spacingAndGlyphs" opacity="0" text-anchor="end" textLength="2320" x="71600" y="35250">RESET</text><path d="m69710 35220-170-240"/><path d="m69420 35220v-500h190l50 30 20 20 30 50v70l-30 50-20 20-50 20h-190"/><path d="m69920 34960h170"/><path d="m70160 35220h-240v-500h240"/><path d="m70350 35200 70 20h120l50-20 20-30 30-40v-50l-30-50-20-20-50-30-90-20-50-20-30-30-20-50v-40l20-50 30-20 50-30h120l70 30"/><path d="m70850 34960h170"/><path d="m71090 35220h-240v-500h240"/><path d="m71230 34720h290"/><path d="m71370 35220v-500"/></g><g fill="#840000" fill-opacity="0" stroke="#840000"><text font-size="660" lengthAdjust="spacingAndGlyphs" opacity="0" text-anchor="middle" textLength="1010" x="72500" y="34900">28</text><path d="m72110 34420 30-20 50-30h110l50 30 30 20 20 50v40l-20 80-290 280h310"/><path d="m72690 34590-50-30-30-20-20-50v-20l20-50 30-20 50-30h90l50 30 20 20 30 50v20l-30 50-20 20-50 30h-90l-50 20-30 20-20 50v100l20 40 30 30 50 20h90l50-20 20-30 30-40v-100l-30-50-20-20-50-20"/><path d="m69000 50000v1000"/></g><g fill="#008484" fill-opacity="0" stroke="#008484"><text font-size="660" lengthAdjust="spacingAndGlyphs" opacity="0" textLength="1580" transform="matrix(0 -1 1 0 19400 118600)" x="69000" y="49850">GND</text><path d="m68750 49180-30 50v70l30 70 40 50 50 30 100 20h70l90-20 50-30 50-50 20-70v-40l-20-80-30-20h-160v100"/><path d="m69220 48950h-500l500-290h-500"/><path d="m69220 48420h-500v-120l30-70 40-50 50-20 100-20h70l90 20 50 20 50 50 20 70z"/></g><g fill="#840000" fill-opacity="0" stroke="#840000"><text font-size="660" lengthAdjust="spacingAndGlyphs" opacity="0" text-anchor="middle" textLength="1010" transform="matrix(0 -1 1 0 18400 119400)" x="68900" y="50500">29</text><path d="m68420 50880-20-30-30-50v-110l30-50 20-30 50-20h40l80 20 280 290v-310"/><path d="m68870 50350v-90l-20-50-30-20-70-50-90-30h-190l-50 30-20 20-30 50v90l30 50 20 30 50 20h120l40-20 30-30 20-50v-90l-20-50-30-20-40-30"/><path d="m72000 36000h1000"/></g><g fill="#008484" fill-opacity="0" stroke="#008484"><text font-size="660" lengthAdjust="spacingAndGlyphs" opacity="0" text-anchor="end" textLength="2320" x="71600" y="36250">RESET</text><path d="m69710 36220-170-240"/><path d="m69420 36220v-500h190l50 30 20 20 30 50v70l-30 50-20 20-50 20h-190"/><path d="m69920 35960h170"/><path d="m70160 36220h-240v-500h240"/><path d="m70350 36200 70 20h120l50-20 20-30 30-40v-50l-30-50-20-20-50-30-90-20-50-20-30-30-20-50v-40l20-50 30-20 50-30h120l70 30"/><path d="m70850 35960h170"/><path d="m71090 36220h-240v-500h240"/><path d="m71230 35720h290"/><path d="m71370 36220v-500"/></g><g fill="#840000" fill-opacity="0" stroke="#840000"><text font-size="660" lengthAdjust="spacingAndGlyphs" opacity="0" text-anchor="middle" textLength="540" x="72500" y="35900">3</text><path d="m72330 35370h310l-170 190h70l50 30 20 20 30 50v120l-30 40-20 30-50 20h-140l-50-20-20-30"/><path d="m67000 32000v-1000"/></g><g fill="#008484" fill-opacity="0" stroke="#008484"><text font-size="660" lengthAdjust="spacingAndGlyphs" opacity="0" text-anchor="end" textLength="1250" transform="matrix(0 -1 1 0 34600 99400)" x="67000" y="32650">VIN</text><path d="m66720 33570 500-170-500-170"/><path d="m67220 33070h-500"/><path d="m67220 32830h-500l500-290h-500"/></g><g fill="#840000" fill-opacity="0" stroke="#840000"><text font-size="660" lengthAdjust="spacingAndGlyphs" opacity="0" text-anchor="middle" textLength="1010" transform="matrix(0 -1 1 0 35400 98400)" x="66900" y="31500">30</text><path d="m66370 31900v-310l190 170v-70l30-50 20-30 50-20h120l40 20 30 30 20 50v140l-20 50-30 20"/><path d="m66370 31280v-50l30-40 20-30 50-20 90-30h120l100 30 40 20 30 30 20 40v50l-20 50-30 20-40 30-100 20h-120l-90-20-50-30-20-20z"/><path d="m68000 50000v1000"/></g><g fill="#008484" fill-opacity="0" stroke="#008484"><text font-size="660" lengthAdjust="spacingAndGlyphs" opacity="0" textLength="1580" transform="matrix(0 -1 1 0 18400 117600)" x="68000" y="49850">GND</text><path d="m67750 49180-30 50v70l30 70 40 50 50 30 100 20h70l90-20 50-30 50-50 20-70v-40l-20-80-30-20h-160v100"/><path d="m68220 48950h-500l500-290h-500"/><path d="m68220 48420h-500v-120l30-70 40-50 50-20 100-20h70l90 20 50 20 50 50 20 70z"/></g><g fill="#840000" fill-opacity="0" stroke="#840000"><text font-size="660" lengthAdjust="spacingAndGlyphs" opacity="0" text-anchor="middle" textLength="540" transform="matrix(0 -1 1 0 17400 118400)" x="67900" y="50500">4</text><path d="m67540 50400h330"/><path d="m67350 50520 350 120v-310"/><path d="m64000 37000h-1000"/></g><g fill="#008484" fill-opacity="0" stroke="#008484"><text font-size="660" lengthAdjust="spacingAndGlyphs" opacity="0" textLength="1040" x="64400" y="37250">D2</text><path d="m64540 37220v-500h120l70 30 50 40 30 50 20 100v70l-20 90-30 50-50 50-70 20z"/><path d="m65020 36770 20-20 50-30h120l50 30 20 20 30 50v40l-30 80-280 280h310"/></g><g fill="#840000" fill-opacity="0" stroke="#840000"><text font-size="660" lengthAdjust="spacingAndGlyphs" opacity="0" text-anchor="middle" textLength="540" x="63500" y="36900">5</text><path d="m63610 36370h-230l-30 240 30-20 40-30h120l50 30 20 20 30 50v120l-30 40-20 30-50 20h-120l-40-20-30-30"/><path d="m64000 38000h-1000"/></g><g fill="#008484" fill-opacity="0" stroke="#008484"><text font-size="660" lengthAdjust="spacingAndGlyphs" opacity="0" textLength="1040" x="64400" y="38250">D3</text><path d="m64540 38220v-500h120l70 30 50 40 30 50 20 100v70l-20 90-30 50-50 50-70 20z"/><path d="m65000 37720h310l-170 190h70l50 30 20 20 30 50v120l-30 40-20 30-50 20h-140l-50-20-20-30"/></g><g fill="#840000" fill-opacity="0" stroke="#840000"><text font-size="660" lengthAdjust="spacingAndGlyphs" opacity="0" text-anchor="middle" textLength="540" x="63500" y="37900">6</text><path d="m63590 37370h-90l-50 30-30 20-40 70-30 100v190l30 40 20 30 50 20h90l50-20 20-30 30-40v-120l-30-50-20-20-50-30h-90l-50 30-20 20-30 50"/><path d="m64000 39000h-1000"/></g><g fill="#008484" fill-opacity="0" stroke="#008484"><text font-size="660" lengthAdjust="spacingAndGlyphs" opacity="0" textLength="1040" x="64400" y="39250">D4</text><path d="m64540 39220v-500h120l70 30 50 40 30 50 20 100v70l-20 90-30 50-50 50-70 20z"/><path d="m65260 38890v330"/><path d="m65140 38700-120 350h310"/></g><g fill="#840000" fill-opacity="0" stroke="#840000"><text font-size="660" lengthAdjust="spacingAndGlyphs" opacity="0" text-anchor="middle" textLength="540" x="63500" y="38900">7</text><path d="m63330 38370h330l-210 500"/><path d="m64000 40000h-1000"/></g><g fill="#008484" fill-opacity="0" stroke="#008484"><text font-size="660" lengthAdjust="spacingAndGlyphs" opacity="0" textLength="1040" x="64400" y="40250">D5</text><path d="m64540 40220v-500h120l70 30 50 40 30 50 20 100v70l-20 90-30 50-50 50-70 20z"/><path d="m65280 39720h-240l-20 240 20-20 50-30h120l50 30 20 20 30 50v120l-30 40-20 30-50 20h-120l-50-20-20-30"/></g><g fill="#840000" fill-opacity="0" stroke="#840000"><text font-size="660" lengthAdjust="spacingAndGlyphs" opacity="0" text-anchor="middle" textLength="540" x="63500" y="39900">8</text><path d="m63450 39590-50-30-20-20-30-50v-20l30-50 20-20 50-30h90l50 30 20 20 30 50v20l-30 50-20 20-50 30h-90l-50 20-20 20-30 50v100l30 40 20 30 50 20h90l50-20 20-30 30-40v-100l-30-50-20-20-50-20"/><path d="m64000 41000h-1000"/></g><g fill="#008484" fill-opacity="0" stroke="#008484"><text font-size="660" lengthAdjust="spacingAndGlyphs" opacity="0" textLength="1040" x="64400" y="41250">D6</text><path d="m64540 41220v-500h120l70 30 50 40 30 50 20 100v70l-20 90-30 50-50 50-70 20z"/><path d="m65260 40720h-100l-40 30-30 20-50 70-20 100v190l20 40 30 30 50 20h90l50-20 20-30 30-40v-120l-30-50-20-20-50-30h-90l-50 30-30 20-20 50"/></g><g fill="#840000" fill-opacity="0" stroke="#840000"><text font-size="660" lengthAdjust="spacingAndGlyphs" opacity="0" text-anchor="middle" textLength="540" x="63500" y="40900">9</text><path d="m63400 40870h100l40-20 30-30 40-70 30-90v-190l-30-50-20-20-50-30h-90l-50 30-20 20-30 50v120l30 40 20 30 50 20h90l50-20 20-30 30-40"/></g><g fill="#008484" fill-opacity="0" stroke="#008484"><text font-size="660" lengthAdjust="spacingAndGlyphs" opacity="0" text-anchor="middle" textLength="960" x="68000" y="52160">A1</text><path d="m67640 51990h240"/><path d="m67590 52130 170-500 160 500"/><path d="m68350 52130h-280"/><path d="m68210 52130v-500l-50 70-50 50-40 20"/><text font-size="660" lengthAdjust="spacingAndGlyphs" opacity="0" text-anchor="middle" textLength="6990" x="68000" y="53070">Arduino_Nano_v2.x</text><path d="m64630 52900h230"/><path d="m64580 53040 170-500 160 500"/><path d="m65080 53040v-330"/><path d="m65080 52800 20-40 30-30 40-20h50"/><path d="m65600 53040v-500"/><path d="m65600 53020-50 20h-90l-50-20-20-30-30-40v-150l30-40 20-30 50-20h90l50 20"/><path d="m66050 52710v330"/><path d="m65840 52710v260l20 50 50 20h70l50-20 20-30"/><path d="m66290 53040v-330"/><path d="m66290 52540-20 30 20 20 30-20-30-30v50"/><path d="m66530 52710v330"/><path d="m66530 52760 20-30 50-20h70l50 20 30 50v260"/><path d="m67050 53040-40-20-30-30-20-40v-150l20-40 30-30 40-20h80l40 20 30 30 20 40v150l-20 40-30 30-40 20z"/><path d="m67320 53090h380"/><path d="m67820 53040v-500l280 500v-500"/><path d="m68550 53040v-260l-20-50-50-20h-90l-50 20"/><path d="m68550 53020-40 20h-120l-50-20-20-50v-50l20-50 50-20h120l40-20"/><path d="m68790 52710v330"/><path d="m68790 52760 30-30 40-20h80l40 20 30 50v260"/><path d="m69320 53040-50-20-20-30-30-40v-150l30-40 20-30 50-20h70l50 20 20 30 20 40v150l-20 40-20 30-50 20z"/><path d="m69580 53090h380"/><path d="m70030 52710 120 330 120-330"/><path d="m70440 52590 20-20 50-30h120l40 30 30 20 20 50v40l-20 80-290 280h310"/><path d="m70940 52990 20 30-20 20-30-20 30-30v50"/><path d="m71130 53040 260-330"/><path d="m71130 52710 260 330"/></g></g></g></g></g><g fill="#008484" fill-opacity="0" stroke="#008484" stroke-width="60"><path d="m68000 55000v500h500l-500 500-500-500h500" fill="none" stroke="#840000"/><g fill="#008484" fill-opacity="0" stroke="#008484"><text font-size="660" lengthAdjust="spacingAndGlyphs" opacity="0" text-anchor="middle" textLength="1580" x="68050" y="57000">GND</text><path d="m67660 56500-40-30h-70l-80 30-40 40-30 50-20 100v70l20 90 30 50 40 50 80 20h40l70-20 30-30v-160h-100"/><path d="m67900 56970v-500l290 500v-500"/><path d="m68430 56970v-500h120l70 30 40 40 30 50 20 100v70l-20 90-30 50-40 50-70 20z"/></g></g><g fill="#008484" fill-opacity="0" stroke="#008484" stroke-width="60"><g fill="none" stroke="#840000"><path d="m69700 27500 300-500"/><path d="m70000 28000v-1000"/><path d="m70000 27000 300 500"/></g><g fill="#008484" stroke="#008484"><text font-size="660" lengthAdjust="spacingAndGlyphs" opacity="0" text-anchor="middle" textLength="1580" x="70150" y="26540">+5V</text><path d="m69500 26320h380"/><path d="m69690 26510v-380"/><path d="m70360 26010h-240l-20 240 20-20 50-30h120l50 30 20 20 20 50v120l-20 40-20 30-50 20h-120l-50-20-20-30"/><path d="m70530 26010 160 500 170-500"/></g></g><g fill="#008484" fill-opacity="0" stroke="#008484" stroke-width="60"><g fill="#840000" stroke="#840000"><path d="m46500.3 51700a200 200 0 0 0 0-400"/><path d="m46500.3 52700a200 200 0 0 0 0-400"/><path d="m47000 51500h-300" fill="none" stroke="#840000" stroke-linecap="round" stroke-linejoin="round" stroke-width="60"/><path d="m47000 52500h-300" fill="none" stroke="#840000" stroke-linecap="round" stroke-linejoin="round" stroke-width="60"/><path d="m47000 52500h1500"/><text font-size="660" lengthAdjust="spacingAndGlyphs" opacity="0" text-anchor="middle" textLength="540" x="47750" y="52400">1</text><path d="m47890 52370h-290"/><path d="m47750 52370v-500l-50 70-50 50-50 20"/><path d="m47000 51500h1500"/><text font-size="660" lengthAdjust="spacingAndGlyphs" opacity="0" text-anchor="middle" textLength="540" x="47750" y="51400">2</text><path d="m47600 50920 30-20 40-30h120l50 30 20 20 30 50v40l-30 80-280 280h310"/></g><g fill="#008484" stroke="#008484"><text font-size="660" lengthAdjust="spacingAndGlyphs" opacity="0" text-anchor="middle" textLength="870" x="47570" y="49470">J?</text><path d="m47420 48940v360l-20 70-50 50-70 20h-50"/><path d="m47730 49390 30 30-30 20-20-20 20-30v50"/><path d="m47640 48970 40-30h120l50 30 20 40v50l-20 50-20 20-50 30-20 20-30 50v20"/><text font-size="660" lengthAdjust="spacingAndGlyphs" opacity="0" text-anchor="middle" textLength="3630" x="47570" y="50380">row4-red</text><path d="m45900 50350v-330"/><path d="m45900 50110 20-40 30-30 40-20h50"/><path d="m46280 50350-50-20-20-30-30-40v-150l30-40 20-30 50-20h70l50 20 20 30 30 40v150l-30 40-20 30-50 20z"/><path d="m46610 50020 100 330 90-240 100 240 90-330"/><path d="m47400 50020v330"/><path d="m47280 49830-120 350h310"/><path d="m47660 50160h380"/><path d="m48280 50350v-330"/><path d="m48280 50110 20-40 30-30 40-20h50"/><path d="m48780 50330-50 20h-90l-50-20-20-50v-190l20-50 50-20h90l50 20 20 50v50l-230 40"/><path d="m49230 50350v-500"/><path d="m49230 50330-50 20h-90l-50-20-20-30-30-40v-150l30-40 20-30 50-20h90l50 20"/></g></g><g fill="#008484" fill-opacity="0" stroke="#008484" stroke-width="60"><g fill="#840000" stroke="#840000"><path d="m46500.3 45700a200 200 0 0 0 0-400"/><path d="m46500.3 46700a200 200 0 0 0 0-400"/><path d="m46500.3 47700a200 200 0 0 0 0-400"/><path d="m46500.3 48700a200 200 0 0 0 0-400"/><g fill="none" stroke="#840000" stroke-linecap="round" stroke-linejoin="round" stroke-width="60"><path d="m47000 45500h-300"/><path d="m47000 46500h-300"/><path d="m47000 47500h-300"/><path d="m47000 48500h-300"/></g><path d="m47000 48500h1500"/><text font-size="660" lengthAdjust="spacingAndGlyphs" opacity="0" text-anchor="middle" textLength="540" x="47750" y="48400">1</text><path d="m47890 48370h-290"/><path d="m47750 48370v-500l-50 70-50 50-50 20"/><path d="m47000 47500h1500"/><text font-size="660" lengthAdjust="spacingAndGlyphs" opacity="0" text-anchor="middle" textLength="540" x="47750" y="47400">2</text><path d="m47600 46920 30-20 40-30h120l50 30 20 20 30 50v40l-30 80-280 280h310"/><path d="m47000 46500h1500"/><text font-size="660" lengthAdjust="spacingAndGlyphs" opacity="0" text-anchor="middle" textLength="540" x="47750" y="46400">3</text><path d="m47580 45870h310l-170 190h70l50 30 20 20 30 50v120l-30 40-20 30-50 20h-140l-50-20-20-30"/><path d="m47000 45500h1500"/><text font-size="660" lengthAdjust="spacingAndGlyphs" opacity="0" text-anchor="middle" textLength="540" x="47750" y="45400">4</text><path d="m47840 45040v330"/><path d="m47720 44850-120 350h310"/></g><g fill="#008484" stroke="#008484"><text font-size="660" lengthAdjust="spacingAndGlyphs" opacity="0" text-anchor="middle" textLength="870" x="47570" y="43470">J?</text><path d="m47420 42940v360l-20 70-50 50-70 20h-50"/><path d="m47730 43390 30 30-30 20-20-20 20-30v50"/><path d="m47640 42970 40-30h120l50 30 20 40v50l-20 50-20 20-50 30-20 20-30 50v20"/><text font-size="660" lengthAdjust="spacingAndGlyphs" opacity="0" text-anchor="middle" textLength="3630" x="47570" y="44380">row3-red</text><path d="m45900 44350v-330"/><path d="m45900 44110 20-40 30-30 40-20h50"/><path d="m46280 44350-50-20-20-30-30-40v-150l30-40 20-30 50-20h70l50 20 20 30 30 40v150l-30 40-20 30-50 20z"/><path d="m46610 44020 100 330 90-240 100 240 90-330"/><path d="m47140 43850h310l-170 190h70l50 30 20 20 30 50v120l-30 40-20 30-50 20h-140l-50-20-20-30"/><path d="m47660 44160h380"/><path d="m48280 44350v-330"/><path d="m48280 44110 20-40 30-30 40-20h50"/><path d="m48780 44330-50 20h-90l-50-20-20-50v-190l20-50 50-20h90l50 20 20 50v50l-230 40"/><path d="m49230 44350v-500"/><path d="m49230 44330-50 20h-90l-50-20-20-30-30-40v-150l30-40 20-30 50-20h90l50 20"/></g></g><g fill="#008484" fill-opacity="0" stroke="#008484" stroke-width="60"><g fill="#840000" stroke="#840000"><path d="m46500.3 39700a200 200 0 0 0 0-400"/><path d="m46500.3 40700a200 200 0 0 0 0-400"/><path d="m46500.3 41700a200 200 0 0 0 0-400"/><path d="m46500.3 42700a200 200 0 0 0 0-400"/><g fill="none" stroke="#840000" stroke-linecap="round" stroke-linejoin="round" stroke-width="60"><path d="m47000 39500h-300"/><path d="m47000 40500h-300"/><path d="m47000 41500h-300"/><path d="m47000 42500h-300"/></g><path d="m47000 42500h1500"/><text font-size="660" lengthAdjust="spacingAndGlyphs" opacity="0" text-anchor="middle" textLength="540" x="47750" y="42400">1</text><path d="m47890 42370h-290"/><path d="m47750 42370v-500l-50 70-50 50-50 20"/><path d="m47000 41500h1500"/><text font-size="660" lengthAdjust="spacingAndGlyphs" opacity="0" text-anchor="middle" textLength="540" x="47750" y="41400">2</text><path d="m47600 40920 30-20 40-30h120l50 30 20 20 30 50v40l-30 80-280 280h310"/><path d="m47000 40500h1500"/><text font-size="660" lengthAdjust="spacingAndGlyphs" opacity="0" text-anchor="middle" textLength="540" x="47750" y="40400">3</text><path d="m47580 39870h310l-170 190h70l50 30 20 20 30 50v120l-30 40-20 30-50 20h-140l-50-20-20-30"/><path d="m47000 39500h1500"/><text font-size="660" lengthAdjust="spacingAndGlyphs" opacity="0" text-anchor="middle" textLength="540" x="47750" y="39400">4</text><path d="m47840 39040v330"/><path d="m47720 38850-120 350h310"/></g><g fill="#008484" stroke="#008484"><text font-size="660" lengthAdjust="spacingAndGlyphs" opacity="0" text-anchor="middle" textLength="870" x="47570" y="37470">J?</text><path d="m47420 36940v360l-20 70-50 50-70 20h-50"/><path d="m47730 37390 30 30-30 20-20-20 20-30v50"/><path d="m47640 36970 40-30h120l50 30 20 40v50l-20 50-20 20-50 30-20 20-30 50v20"/><text font-size="660" lengthAdjust="spacingAndGlyphs" opacity="0" text-anchor="middle" textLength="4440" x="47580" y="38380">row2-black</text><path d="m45500 38350v-330"/><path d="m45500 38110 30-40 20-30 50-20h50"/><path d="m45880 38350-40-20-30-30-20-40v-150l20-40 30-30 40-20h80l40 20 30 30 20 40v150l-20 40-30 30-40 20z"/><path d="m46220 38020 90 330 100-240 90 240 100-330"/><path d="m46770 37900 20-20 50-30h120l40 30 30 20 20 50v40l-20 80-290 280h310"/><path d="m47270 38160h380"/><path d="m47880 38350v-500"/><path d="m47880 38040 50-20h100l50 20 20 30 20 40v150l-20 40-20 30-50 20h-100l-50-20"/><path d="m48410 38350-50-20-20-50v-430"/><path d="m48810 38350v-260l-20-50-50-20h-90l-50 20"/><path d="m48810 38330-40 20h-120l-50-20-20-50v-50l20-50 50-20h120l40-20"/><path d="m49270 38330-50 20h-100l-40-20-30-30-20-40v-150l20-40 30-30 40-20h100l50 20"/><path d="m49480 38350v-500"/><path d="m49530 38160 140 190"/><path d="m49670 38020-190 190"/></g></g><g fill="#008484" fill-opacity="0" stroke="#008484" stroke-width="60"><g fill="#840000" stroke="#840000"><path d="m46500.3 33700a200 200 0 0 0 0-400"/><path d="m46500.3 34700a200 200 0 0 0 0-400"/><path d="m46500.3 35700a200 200 0 0 0 0-400"/><path d="m46500.3 36700a200 200 0 0 0 0-400"/><g fill="none" stroke="#840000" stroke-linecap="round" stroke-linejoin="round" stroke-width="60"><path d="m47000 33500h-300"/><path d="m47000 34500h-300"/><path d="m47000 35500h-300"/><path d="m47000 36500h-300"/></g><path d="m47000 36500h1500"/><text font-size="660" lengthAdjust="spacingAndGlyphs" opacity="0" text-anchor="middle" textLength="540" x="47750" y="36400">1</text><path d="m47890 36370h-290"/><path d="m47750 36370v-500l-50 70-50 50-50 20"/><path d="m47000 35500h1500"/><text font-size="660" lengthAdjust="spacingAndGlyphs" opacity="0" text-anchor="middle" textLength="540" x="47750" y="35400">2</text><path d="m47600 34920 30-20 40-30h120l50 30 20 20 30 50v40l-30 80-280 280h310"/><path d="m47000 34500h1500"/><text font-size="660" lengthAdjust="spacingAndGlyphs" opacity="0" text-anchor="middle" textLength="540" x="47750" y="34400">3</text><path d="m47580 33870h310l-170 190h70l50 30 20 20 30 50v120l-30 40-20 30-50 20h-140l-50-20-20-30"/><path d="m47000 33500h1500"/><text font-size="660" lengthAdjust="spacingAndGlyphs" opacity="0" text-anchor="middle" textLength="540" x="47750" y="33400">4</text><path d="m47840 33040v330"/><path d="m47720 32850-120 350h310"/></g><g fill="#008484" stroke="#008484"><text font-size="660" lengthAdjust="spacingAndGlyphs" opacity="0" text-anchor="middle" textLength="870" x="47570" y="31470">J?</text><path d="m47420 30940v360l-20 70-50 50-70 20h-50"/><path d="m47730 31390 30 30-30 20-20-20 20-30v50"/><path d="m47640 30970 40-30h120l50 30 20 40v50l-20 50-20 20-50 30-20 20-30 50v20"/><text font-size="660" lengthAdjust="spacingAndGlyphs" opacity="0" text-anchor="middle" textLength="4440" x="47580" y="32380">row1-black</text><path d="m45500 32350v-330"/><path d="m45500 32110 30-40 20-30 50-20h50"/><path d="m45880 32350-40-20-30-30-20-40v-150l20-40 30-30 40-20h80l40 20 30 30 20 40v150l-20 40-30 30-40 20z"/><path d="m46220 32020 90 330 100-240 90 240 100-330"/><path d="m47050 32350h-280"/><path d="m46910 32350v-500l-50 70-50 50-40 20"/><path d="m47270 32160h380"/><path d="m47880 32350v-500"/><path d="m47880 32040 50-20h100l50 20 20 30 20 40v150l-20 40-20 30-50 20h-100l-50-20"/><path d="m48410 32350-50-20-20-50v-430"/><path d="m48810 32350v-260l-20-50-50-20h-90l-50 20"/><path d="m48810 32330-40 20h-120l-50-20-20-50v-50l20-50 50-20h120l40-20"/><path d="m49270 32330-50 20h-100l-40-20-30-30-20-40v-150l20-40 30-30 40-20h100l50 20"/><path d="m49480 32350v-500"/><path d="m49530 32160 140 190"/><path d="m49670 32020-190 190"/></g></g><g fill="#008484" fill-opacity="0" stroke="#008484" stroke-width="60"><path d="m71500 55000v500l400 250-400 250-400-250 400-250" fill="none" stroke="#840000"/><g fill="#008484" fill-opacity="0" stroke="#008484"><text font-size="660" lengthAdjust="spacingAndGlyphs" opacity="0" text-anchor="middle" textLength="3770" x="71490" y="56950">PWR_FLAG</text><path d="m69750 56920v-500h190l50 30 20 20 20 50v70l-20 50-20 20-50 20h-190"/><path d="m70200 56420 120 500 90-360 100 360 120-500"/><path d="m71100 56920-160-240"/><path d="m70820 56920v-500h190l50 30 20 20 20 50v70l-20 50-20 20-50 20h-190"/><path d="m71200 56970h380"/><path d="m71870 56660h-170"/><path d="m71700 56920v-500h240"/><path d="m72370 56920h-240v-500"/><path d="m72510 56780h240"/><path d="m72460 56920 170-500 160 500"/><path d="m73220 56450-40-30h-80l-70 30-40 40-30 50-20 100v70l20 90 30 50 40 50 70 20h50l70-20 30-30v-160h-100"/></g></g><g fill="#008484" fill-opacity="0" stroke="#008484" stroke-width="60"><path d="m67000 28500v-500l-400-250 400-250 400 250-400 250" fill="none" stroke="#840000"/><g fill="#008484" fill-opacity="0" stroke="#008484"><text font-size="660" lengthAdjust="spacingAndGlyphs" opacity="0" text-anchor="middle" textLength="3770" x="67000" y="27040">PWR_FLAG</text><path d="m65260 27010v-500h190l50 30 20 20 20 50v70l-20 50-20 20-50 20h-190"/><path d="m65710 26510 120 500 90-360 100 360 120-500"/><path d="m66610 27010-160-240"/><path d="m66330 27010v-500h190l50 30 20 20 20 50v70l-20 50-20 20-50 20h-190"/><path d="m66710 27060h380"/><path d="m67380 26750h-170"/><path d="m67210 27010v-500h240"/><path d="m67880 27010h-240v-500"/><path d="m68020 26870h240"/><path d="m67970 27010 170-500 160 500"/><path d="m68730 26540-40-30h-80l-70 30-40 40-30 50-20 100v70l20 90 30 50 40 50 70 20h50l70-20 30-30v-160h-100"/></g></g><g fill="#008400" fill-opacity="0" stroke="#008400" stroke-width="60"><path d="m63000 38000h-500"/><path d="m48500 48500h500"/><path d="m63000 39000h-500"/><path d="m63000 40000h-500"/><path d="m63000 41000h-500"/><path d="m63000 42000h-500"/><path d="m63000 43000h-500"/><path d="m63000 44000h-500"/><path d="m63000 45000h-500"/><path d="m63000 46000h-500"/><path d="m63000 47000h-500"/><path d="m68000 54000v1000"/><path d="m71500 55000v-1000"/><path d="m71500 54000h-2500"/><path d="m73500 41000h-500"/><path d="m70000 28000v3000"/><path d="m73500 42000h-500"/><path d="m67000 28500v2500"/><path d="m73500 43000h-500"/><path d="m69000 54000h-1000"/><path d="m69000 51000v3000"/><path d="m68000 51000v3000"/><path d="m62500 37000h500"/><path d="m48500 33500h500"/><path d="m48500 34500h500"/><path d="m48500 35500h500"/><path d="m48500 36500h500"/><path d="m48500 39500h500"/><path d="m48500 40500h500"/><path d="m48500 41500h500"/><path d="m48500 42500h500"/><path d="m48500 45500h500"/><path d="m48500 46500h500"/><path d="m48500 47500h500"/><path d="m48500 51500h500"/><path d="m48500 52500h500"/></g><g stroke="#840000"><g fill="#840000" fill-opacity="0" stroke-width="60"><text font-size="660" lengthAdjust="spacingAndGlyphs" opacity="0" textLength="1460" x="49310" y="52750">b14</text><path d="m49450 52720v-500"/><path d="m49450 52410 50-20h100l40 20 30 30 20 40v150l-20 40-30 30-40 20h-100l-50-20"/><path d="m50170 52720h-290"/><path d="m50030 52720v-500l-50 70-50 50-50 20"/><path d="m50600 52390v330"/><path d="m50480 52200-120 350h310"/></g><path d="m49000 52500 250 440h1630v-440-440h-1630z" fill="none" stroke-width="100"/><g fill="#840000" fill-opacity="0" stroke-width="60"><text font-size="660" lengthAdjust="spacingAndGlyphs" opacity="0" textLength="1460" x="49310" y="51750">b13</text><path d="m49450 51720v-500"/><path d="m49450 51410 50-20h100l40 20 30 30 20 40v150l-20 40-30 30-40 20h-100l-50-20"/><path d="m50170 51720h-290"/><path d="m50030 51720v-500l-50 70-50 50-50 20"/><path d="m50340 51220h300l-160 190h70l50 30 20 20 20 50v120l-20 40-20 30-50 20h-140l-50-20-20-30"/></g><path d="m49000 51500 250 440h1630v-440-440h-1630z" fill="none" stroke-width="100"/><g fill="#840000" fill-opacity="0" stroke-width="60"><text font-size="660" lengthAdjust="spacingAndGlyphs" opacity="0" textLength="1460" x="73810" y="43250">b14</text><path d="m73950 43220v-500"/><path d="m73950 42910 50-20h100l40 20 30 30 20 40v150l-20 40-30 30-40 20h-100l-50-20"/><path d="m74670 43220h-290"/><path d="m74530 43220v-500l-50 70-50 50-50 20"/><path d="m75100 42890v330"/><path d="m74980 42700-120 350h310"/></g><path d="m73500 43000 250 440h1630v-440-440h-1630z" fill="none" stroke-width="100"/><g fill="#840000" fill-opacity="0" stroke-width="60"><text font-size="660" lengthAdjust="spacingAndGlyphs" opacity="0" textLength="1460" x="49310" y="48750">b12</text><path d="m49450 48720v-500"/><path d="m49450 48410 50-20h100l40 20 30 30 20 40v150l-20 40-30 30-40 20h-100l-50-20"/><path d="m50170 48720h-290"/><path d="m50030 48720v-500l-50 70-50 50-50 20"/><path d="m50360 48270 20-20 50-30h120l50 30 20 20 20 50v40l-20 80-280 280h300"/></g><path d="m49000 48500 250 440h1630v-440-440h-1630z" fill="none" stroke-width="100"/><g fill="#840000" fill-opacity="0" stroke-width="60"><text font-size="660" lengthAdjust="spacingAndGlyphs" opacity="0" textLength="1460" x="49310" y="47750">b11</text><path d="m49450 47720v-500"/><path d="m49450 47410 50-20h100l40 20 30 30 20 40v150l-20 40-30 30-40 20h-100l-50-20"/><path d="m50170 47720h-290"/><path d="m50030 47720v-500l-50 70-50 50-50 20"/><path d="m50640 47720h-280"/><path d="m50500 47720v-500l-50 70-40 50-50 20"/></g><path d="m49000 47500 250 440h1630v-440-440h-1630z" fill="none" stroke-width="100"/><g fill="#840000" fill-opacity="0" stroke-width="60"><text font-size="660" lengthAdjust="spacingAndGlyphs" opacity="0" textLength="1460" x="49310" y="46750">b10</text><path d="m49450 46720v-500"/><path d="m49450 46410 50-20h100l40 20 30 30 20 40v150l-20 40-30 30-40 20h-100l-50-20"/><path d="m50170 46720h-290"/><path d="m50030 46720v-500l-50 70-50 50-50 20"/><path d="m50480 46220h50l40 30 30 20 20 50 20 90v120l-20 100-20 40-30 30-40 20h-50l-50-20-20-30-30-40-20-100v-120l20-90 30-50 20-20z"/></g><path d="m49000 46500 250 440h1630v-440-440h-1630z" fill="none" stroke-width="100"/><g fill="#840000" fill-opacity="0" stroke-width="60"><text font-size="660" lengthAdjust="spacingAndGlyphs" opacity="0" textLength="1460" x="49310" y="45750">b09</text><path d="m49450 45720v-500"/><path d="m49450 45410 50-20h100l40 20 30 30 20 40v150l-20 40-30 30-40 20h-100l-50-20"/><path d="m50000 45220h50l50 30 20 20 20 50 30 90v120l-30 100-20 40-20 30-50 20h-50l-50-20-20-30-20-40-30-100v-120l30-90 20-50 20-20z"/><path d="m50410 45720h90l50-20 20-30 50-70 20-90v-190l-20-50-20-20-50-30h-100l-40 30-30 20-20 50v120l20 40 30 30 40 20h100l50-20 20-30 20-40"/></g><path d="m49000 45500 250 440h1630v-440-440h-1630z" fill="none" stroke-width="100"/><g fill="#840000" fill-opacity="0" stroke-width="60"><text font-size="660" lengthAdjust="spacingAndGlyphs" opacity="0" textLength="1460" x="49310" y="42750">b08</text><path d="m49450 42720v-500"/><path d="m49450 42410 50-20h100l40 20 30 30 20 40v150l-20 40-30 30-40 20h-100l-50-20"/><path d="m50000 42220h50l50 30 20 20 20 50 30 90v120l-30 100-20 40-20 30-50 20h-50l-50-20-20-30-20-40-30-100v-120l30-90 20-50 20-20z"/><path d="m50450 42440-40-30-30-20-20-50v-20l20-50 30-20 40-30h100l50 30 20 20 20 50v20l-20 50-20 20-50 30h-100l-40 20-30 20-20 50v100l20 40 30 30 40 20h100l50-20 20-30 20-40v-100l-20-50-20-20-50-20"/></g><path d="m49000 42500 250 440h1630v-440-440h-1630z" fill="none" stroke-width="100"/><g fill="#840000" fill-opacity="0" stroke-width="60"><text font-size="660" lengthAdjust="spacingAndGlyphs" opacity="0" textLength="1460" x="49310" y="41750">b07</text><path d="m49450 41720v-500"/><path d="m49450 41410 50-20h100l40 20 30 30 20 40v150l-20 40-30 30-40 20h-100l-50-20"/><path d="m50000 41220h50l50 30 20 20 20 50 30 90v120l-30 100-20 40-20 30-50 20h-50l-50-20-20-30-20-40-30-100v-120l30-90 20-50 20-20z"/><path d="m50340 41220h330l-220 500"/></g><path d="m49000 41500 250 440h1630v-440-440h-1630z" fill="none" stroke-width="100"/><g fill="#840000" fill-opacity="0" stroke-width="60"><text font-size="660" lengthAdjust="spacingAndGlyphs" opacity="0" textLength="1460" x="49310" y="40750">b06</text><path d="m49450 40720v-500"/><path d="m49450 40410 50-20h100l40 20 30 30 20 40v150l-20 40-30 30-40 20h-100l-50-20"/><path d="m50000 40220h50l50 30 20 20 20 50 30 90v120l-30 100-20 40-20 30-50 20h-50l-50-20-20-30-20-40-30-100v-120l30-90 20-50 20-20z"/><path d="m50600 40220h-100l-50 30-20 20-50 70-20 100v190l20 40 30 30 40 20h100l50-20 20-30 20-40v-120l-20-50-20-20-50-30h-100l-40 30-30 20-20 50"/></g><path d="m49000 40500 250 440h1630v-440-440h-1630z" fill="none" stroke-width="100"/><g fill="#840000" fill-opacity="0" stroke-width="60"><text font-size="660" lengthAdjust="spacingAndGlyphs" opacity="0" textLength="1460" x="49310" y="39750">b05</text><path d="m49450 39720v-500"/><path d="m49450 39410 50-20h100l40 20 30 30 20 40v150l-20 40-30 30-40 20h-100l-50-20"/><path d="m50000 39220h50l50 30 20 20 20 50 30 90v120l-30 100-20 40-20 30-50 20h-50l-50-20-20-30-20-40-30-100v-120l30-90 20-50 20-20z"/><path d="m50620 39220h-240l-20 240 20-20 50-30h120l50 30 20 20 20 50v120l-20 40-20 30-50 20h-120l-50-20-20-30"/></g><path d="m49000 39500 250 440h1630v-440-440h-1630z" fill="none" stroke-width="100"/><g fill="#840000" fill-opacity="0" stroke-width="60"><text font-size="660" lengthAdjust="spacingAndGlyphs" opacity="0" textLength="1460" x="49310" y="36750">b04</text><path d="m49450 36720v-500"/><path d="m49450 36410 50-20h100l40 20 30 30 20 40v150l-20 40-30 30-40 20h-100l-50-20"/><path d="m50000 36220h50l50 30 20 20 20 50 30 90v120l-30 100-20 40-20 30-50 20h-50l-50-20-20-30-20-40-30-100v-120l30-90 20-50 20-20z"/><path d="m50600 36390v330"/><path d="m50480 36200-120 350h310"/></g><path d="m49000 36500 250 440h1630v-440-440h-1630z" fill="none" stroke-width="100"/><g fill="#840000" fill-opacity="0" stroke-width="60"><text font-size="660" lengthAdjust="spacingAndGlyphs" opacity="0" textLength="1460" x="49310" y="35750">b03</text><path d="m49450 35720v-500"/><path d="m49450 35410 50-20h100l40 20 30 30 20 40v150l-20 40-30 30-40 20h-100l-50-20"/><path d="m50000 35220h50l50 30 20 20 20 50 30 90v120l-30 100-20 40-20 30-50 20h-50l-50-20-20-30-20-40-30-100v-120l30-90 20-50 20-20z"/><path d="m50340 35220h300l-160 190h70l50 30 20 20 20 50v120l-20 40-20 30-50 20h-140l-50-20-20-30"/></g><path d="m49000 35500 250 440h1630v-440-440h-1630z" fill="none" stroke-width="100"/><g fill="#840000" fill-opacity="0" stroke-width="60"><text font-size="660" lengthAdjust="spacingAndGlyphs" opacity="0" textLength="1460" x="49310" y="34750">b02</text><path d="m49450 34720v-500"/><path d="m49450 34410 50-20h100l40 20 30 30 20 40v150l-20 40-30 30-40 20h-100l-50-20"/><path d="m50000 34220h50l50 30 20 20 20 50 30 90v120l-30 100-20 40-20 30-50 20h-50l-50-20-20-30-20-40-30-100v-120l30-90 20-50 20-20z"/><path d="m50360 34270 20-20 50-30h120l50 30 20 20 20 50v40l-20 80-280 280h300"/></g><path d="m49000 34500 250 440h1630v-440-440h-1630z" fill="none" stroke-width="100"/><g fill="#840000" fill-opacity="0" stroke-width="60"><text font-size="660" lengthAdjust="spacingAndGlyphs" opacity="0" text-anchor="end" textLength="1460" x="62190" y="37250">b01</text><path d="m60870 37220v-500"/><path d="m60870 36910 50-20h90l50 20 20 30 30 40v150l-30 40-20 30-50 20h-90l-50-20"/><path d="m61420 36720h40l50 30 30 20 20 50 20 90v120l-20 100-20 40-30 30-50 20h-40l-50-20-20-30-30-40-20-100v-120l20-90 30-50 20-20z"/><path d="m62060 37220h-290"/><path d="m61920 37220v-500l-50 70-50 50-50 20"/></g><path d="m62500 37000-250-440h-1630v440 440h1630z" fill="none" stroke-width="100"/><g fill="#840000" fill-opacity="0" stroke-width="60"><text font-size="660" lengthAdjust="spacingAndGlyphs" opacity="0" textLength="1460" x="49310" y="33750">b01</text><path d="m49450 33720v-500"/><path d="m49450 33410 50-20h100l40 20 30 30 20 40v150l-20 40-30 30-40 20h-100l-50-20"/><path d="m50000 33220h50l50 30 20 20 20 50 30 90v120l-30 100-20 40-20 30-50 20h-50l-50-20-20-30-20-40-30-100v-120l30-90 20-50 20-20z"/><path d="m50640 33720h-280"/><path d="m50500 33720v-500l-50 70-40 50-50 20"/></g><path d="m49000 33500 250 440h1630v-440-440h-1630z" fill="none" stroke-width="100"/><g fill="#840000" fill-opacity="0" stroke-width="60"><text font-size="660" lengthAdjust="spacingAndGlyphs" opacity="0" text-anchor="end" textLength="1460" x="62190" y="38250">b02</text><path d="m60870 38220v-500"/><path d="m60870 37910 50-20h90l50 20 20 30 30 40v150l-30 40-20 30-50 20h-90l-50-20"/><path d="m61420 37720h40l50 30 30 20 20 50 20 90v120l-20 100-20 40-30 30-50 20h-40l-50-20-20-30-30-40-20-100v-120l20-90 30-50 20-20z"/><path d="m61770 37770 30-20 50-30h110l50 30 30 20 20 50v40l-20 80-290 280h310"/></g><path d="m62500 38000-250-440h-1630v440 440h1630z" fill="none" stroke-width="100"/><g fill="#840000" fill-opacity="0" stroke-width="60"><text font-size="660" lengthAdjust="spacingAndGlyphs" opacity="0" text-anchor="end" textLength="1460" x="62190" y="39250">b03</text><path d="m60870 39220v-500"/><path d="m60870 38910 50-20h90l50 20 20 30 30 40v150l-30 40-20 30-50 20h-90l-50-20"/><path d="m61420 38720h40l50 30 30 20 20 50 20 90v120l-20 100-20 40-30 30-50 20h-40l-50-20-20-30-30-40-20-100v-120l20-90 30-50 20-20z"/><path d="m61750 38720h310l-170 190h70l50 30 30 20 20 50v120l-20 40-30 30-50 20h-140l-50-20-20-30"/></g><path d="m62500 39000-250-440h-1630v440 440h1630z" fill="none" stroke-width="100"/><g fill="#840000" fill-opacity="0" stroke-width="60"><text font-size="660" lengthAdjust="spacingAndGlyphs" opacity="0" text-anchor="end" textLength="1460" x="62190" y="40250">b04</text><path d="m60870 40220v-500"/><path d="m60870 39910 50-20h90l50 20 20 30 30 40v150l-30 40-20 30-50 20h-90l-50-20"/><path d="m61420 39720h40l50 30 30 20 20 50 20 90v120l-20 100-20 40-30 30-50 20h-40l-50-20-20-30-30-40-20-100v-120l20-90 30-50 20-20z"/><path d="m62010 39890v330"/><path d="m61890 39700-120 350h310"/></g><path d="m62500 40000-250-440h-1630v440 440h1630z" fill="none" stroke-width="100"/><g fill="#840000" fill-opacity="0" stroke-width="60"><text font-size="660" lengthAdjust="spacingAndGlyphs" opacity="0" text-anchor="end" textLength="1460" x="62190" y="41250">b05</text><path d="m60870 41220v-500"/><path d="m60870 40910 50-20h90l50 20 20 30 30 40v150l-30 40-20 30-50 20h-90l-50-20"/><path d="m61420 40720h40l50 30 30 20 20 50 20 90v120l-20 100-20 40-30 30-50 20h-40l-50-20-20-30-30-40-20-100v-120l20-90 30-50 20-20z"/><path d="m62040 40720h-240l-30 240 30-20 50-30h110l50 30 30 20 20 50v120l-20 40-30 30-50 20h-110l-50-20-30-30"/></g><path d="m62500 41000-250-440h-1630v440 440h1630z" fill="none" stroke-width="100"/><g fill="#840000" fill-opacity="0" stroke-width="60"><text font-size="660" lengthAdjust="spacingAndGlyphs" opacity="0" text-anchor="end" textLength="1460" x="62190" y="42250">b06</text><path d="m60870 42220v-500"/><path d="m60870 41910 50-20h90l50 20 20 30 30 40v150l-30 40-20 30-50 20h-90l-50-20"/><path d="m61420 41720h40l50 30 30 20 20 50 20 90v120l-20 100-20 40-30 30-50 20h-40l-50-20-20-30-30-40-20-100v-120l20-90 30-50 20-20z"/><path d="m62010 41720h-90l-50 30-20 20-50 70-30 100v190l30 40 20 30 50 20h90l50-20 30-30 20-40v-120l-20-50-30-20-50-30h-90l-50 30-20 20-30 50"/></g><path d="m62500 42000-250-440h-1630v440 440h1630z" fill="none" stroke-width="100"/><g fill="#840000" fill-opacity="0" stroke-width="60"><text font-size="660" lengthAdjust="spacingAndGlyphs" opacity="0" text-anchor="end" textLength="1460" x="62190" y="43250">b07</text><path d="m60870 43220v-500"/><path d="m60870 42910 50-20h90l50 20 20 30 30 40v150l-30 40-20 30-50 20h-90l-50-20"/><path d="m61420 42720h40l50 30 30 20 20 50 20 90v120l-20 100-20 40-30 30-50 20h-40l-50-20-20-30-30-40-20-100v-120l20-90 30-50 20-20z"/><path d="m61750 42720h330l-210 500"/></g><path d="m62500 43000-250-440h-1630v440 440h1630z" fill="none" stroke-width="100"/><g fill="#840000" fill-opacity="0" stroke-width="60"><text font-size="660" lengthAdjust="spacingAndGlyphs" opacity="0" text-anchor="end" textLength="1460" x="62190" y="44250">b08</text><path d="m60870 44220v-500"/><path d="m60870 43910 50-20h90l50 20 20 30 30 40v150l-30 40-20 30-50 20h-90l-50-20"/><path d="m61420 43720h40l50 30 30 20 20 50 20 90v120l-20 100-20 40-30 30-50 20h-40l-50-20-20-30-30-40-20-100v-120l20-90 30-50 20-20z"/><path d="m61870 43940-50-30-20-20-30-50v-20l30-50 20-20 50-30h90l50 30 30 20 20 50v20l-20 50-30 20-50 30h-90l-50 20-20 20-30 50v100l30 40 20 30 50 20h90l50-20 30-30 20-40v-100l-20-50-30-20-50-20"/></g><path d="m62500 44000-250-440h-1630v440 440h1630z" fill="none" stroke-width="100"/><g fill="#840000" fill-opacity="0" stroke-width="60"><text font-size="660" lengthAdjust="spacingAndGlyphs" opacity="0" text-anchor="end" textLength="1460" x="62190" y="45250">b09</text><path d="m60870 45220v-500"/><path d="m60870 44910 50-20h90l50 20 20 30 30 40v150l-30 40-20 30-50 20h-90l-50-20"/><path d="m61420 44720h40l50 30 30 20 20 50 20 90v120l-20 100-20 40-30 30-50 20h-40l-50-20-20-30-30-40-20-100v-120l20-90 30-50 20-20z"/><path d="m61820 45220h100l40-20 30-30 50-70 20-90v-190l-20-50-30-20-50-30h-90l-50 30-20 20-30 50v120l30 40 20 30 50 20h90l50-20 30-30 20-40"/></g><path d="m62500 45000-250-440h-1630v440 440h1630z" fill="none" stroke-width="100"/><g fill="#840000" fill-opacity="0" stroke-width="60"><text font-size="660" lengthAdjust="spacingAndGlyphs" opacity="0" text-anchor="end" textLength="1460" x="62190" y="46250">b10</text><path d="m60870 46220v-500"/><path d="m60870 45910 50-20h90l50 20 20 30 30 40v150l-30 40-20 30-50 20h-90l-50-20"/><path d="m61580 46220h-280"/><path d="m61440 46220v-500l-50 70-40 50-50 20"/><path d="m61890 45720h50l50 30 20 20 30 50 20 90v120l-20 100-30 40-20 30-50 20h-50l-40-20-30-30-20-40-30-100v-120l30-90 20-50 30-20z"/></g><path d="m62500 46000-250-440h-1630v440 440h1630z" fill="none" stroke-width="100"/><g fill="#840000" fill-opacity="0" stroke-width="60"><text font-size="660" lengthAdjust="spacingAndGlyphs" opacity="0" text-anchor="end" textLength="1460" x="62190" y="47250">b11</text><path d="m60870 47220v-500"/><path d="m60870 46910 50-20h90l50 20 20 30 30 40v150l-30 40-20 30-50 20h-90l-50-20"/><path d="m61580 47220h-280"/><path d="m61440 47220v-500l-50 70-40 50-50 20"/><path d="m62060 47220h-290"/><path d="m61920 47220v-500l-50 70-50 50-50 20"/></g><path d="m62500 47000-250-440h-1630v440 440h1630z" fill="none" stroke-width="100"/><g fill="#840000" fill-opacity="0" stroke-width="60"><text font-size="660" lengthAdjust="spacingAndGlyphs" opacity="0" textLength="1460" x="73810" y="41250">b12</text><path d="m73950 41220v-500"/><path d="m73950 40910 50-20h100l40 20 30 30 20 40v150l-20 40-30 30-40 20h-100l-50-20"/><path d="m74670 41220h-290"/><path d="m74530 41220v-500l-50 70-50 50-50 20"/><path d="m74860 40770 20-20 50-30h120l50 30 20 20 20 50v40l-20 80-280 280h300"/></g><path d="m73500 41000 250 440h1630v-440-440h-1630z" fill="none" stroke-width="100"/><g fill="#840000" fill-opacity="0" stroke-width="60"><text font-size="660" lengthAdjust="spacingAndGlyphs" opacity="0" textLength="1460" x="73810" y="42250">b13</text><path d="m73950 42220v-500"/><path d="m73950 41910 50-20h100l40 20 30 30 20 40v150l-20 40-30 30-40 20h-100l-50-20"/><path d="m74670 42220h-290"/><path d="m74530 42220v-500l-50 70-50 50-50 20"/><path d="m74840 41720h300l-160 190h70l50 30 20 20 20 50v120l-20 40-20 30-50 20h-140l-50-20-20-30"/></g><path d="m73500 42000 250 440h1630v-440-440h-1630z" fill="none" stroke-width="100"/></g><circle cx="68000" cy="54000" fill="#008400" r="200" stroke="#008400" stroke-width="100"/><circle cx="69000" cy="54000" fill="#008400" r="200" stroke="#008400" stroke-width="100"/><g fill="#000084" fill-opacity="0" stroke="#000084" stroke-width="60"><path d="m72760 38760 480 480"/><path d="m73240 38760-480 480"/><path d="m68760 30760 480 480"/><path d="m69240 30760-480 480"/><path d="m72760 43760 480 480"/><path d="m73240 43760-480 480"/><path d="m72760 44760 480 480"/><path d="m73240 44760-480 480"/><path d="m72760 45760 480 480"/><path d="m73240 45760-480 480"/><path d="m72760 46760 480 480"/><path d="m73240 46760-480 480"/><path d="m72760 47760 480 480"/><path d="m73240 47760-480 480"/><path d="m62760 47760 480 480"/><path d="m63240 47760-480 480"/><path d="m62760 35760 480 480"/><path d="m63240 35760-480 480"/><path d="m62760 34760 480 480"/><path d="m63240 34760-480 480"/><path d="m72760 34760 480 480"/><path d="m73240 34760-480 480"/><path d="m72760 35760 480 480"/><path d="m73240 35760-480 480"/></g></g></svg>